{
  "source": "C:\\Users\\Peter\\Desktop\\stuff\\MIUN\\quantitative_research\\video_compression\\videos\\BVI-HD\\BVI-HD_CDVL_videos\\ORIG\\PaintingTilting_1920x1080_60fps.mp4",
  "output": "C:\\Users\\Peter\\Desktop\\stuff\\MIUN\\quantitative_research\\video_compression\\compressed_videos\\BVI-HD\\hevc\\2.5\\PaintingTilting_1920x1080_60fps_hevc.mp4",
  "codec": "hevc",
  "ok": "Input #0, mov,mp4,m4a,3gp,3g2,mj2, from 'C:\\Users\\Peter\\Desktop\\stuff\\MIUN\\quantitative_research\\video_compression\\videos\\BVI-HD\\BVI-HD_CDVL_videos\\ORIG\\PaintingTilting_1920x1080_60fps.mp4':\n  Metadata:\n    major_brand     : isom\n    minor_version   : 512\n    compatible_brands: isomiso2avc1mp41\n    encoder         : Lavf54.28.101\n  Duration: 00:00:05.00, start: 0.000000, bitrate: 667707 kb/s\n  Stream #0:0[0x1](und): Video: h264 (High 4:4:4 Predictive) (avc1 / 0x31637661), yuv420p(progressive), 1920x1080, 667702 kb/s, 60 fps, 60 tbr, 60 tbn (default)\n    Metadata:\n      handler_name    : VideoHandler\n      vendor_id       : [0][0][0][0]\n[out#0/mp4 @ 000002a4cb14ac00] Codec AVOption b:a (set bitrate (in bits/s)) has not been used for any stream. The most likely reason is either wrong type (e.g. a video option with no video streams) or that it is a private option of some decoder which was not actually used for any stream.\nStream mapping:\n  Stream #0:0 -> #0:0 (h264 (native) -> hevc (libx265))\nPress [q] to stop, [?] for help\n[libx265 @ 000002a4cb150f00] Unknown option: \"aq-mode.\nx265 [info]: HEVC encoder version 4.1+190-8f11c33ac\nx265 [info]: build info [Windows][GCC 15.1.0][64 bit] 10bit\nx265 [info]: using cpu capabilities: MMX2 SSE2Fast LZCNT SSSE3 SSE4.2 AVX FMA3 BMI2 AVX2\nx265 [info]: Main 10 profile, Level-4.1 (Main tier)\nx265 [info]: Thread pool created using 12 threads\nx265 [info]: Slices                              : 1\nx265 [info]: frame threads / pool features       : 3 / wpp(17 rows)\nx265 [info]: Coding QT: max CU size, min CU size : 64 / 8\nx265 [info]: Residual QT: max TU size, max depth : 32 / 1 inter / 1 intra\nx265 [info]: ME / range / subpel / merge         : star / 57 / 3 / 3\nx265 [info]: Keyframe min / max / scenecut / bias  : 25 / 250 / 40 / 5.00 \nx265 [info]: Lookahead / bframes / badapt        : 25 / 4 / 2\nx265 [info]: b-pyramid / weightp / weightb       : 1 / 1 / 0\nx265 [info]: References / ref-limit  cu / depth  : 4 / on / on\nx265 [info]: AQ: mode / str / qg-size / cu-tree  : 2 / 1.0 / 32 / 1\nx265 [info]: Rate Control / qCompress            : ABR-2500 kbps / 0.60\nx265 [info]: VBV/HRD buffer / max-rate / init    : 2500 / 2500 / 0.750\nx265 [info]: tools: rect limit-modes rd=4 psy-rd=2.00 rdoq=2 psy-rdoq=1.00\nx265 [info]: tools: rskip mode=1 signhide tmvp strong-intra-smoothing lslices=4\nx265 [info]: tools: deblock sao dhdr10-info\nOutput #0, mp4, to 'C:\\Users\\Peter\\Desktop\\stuff\\MIUN\\quantitative_research\\video_compression\\compressed_videos\\BVI-HD\\hevc\\2.5\\PaintingTilting_1920x1080_60fps_hevc.mp4':\n  Metadata:\n    major_brand     : isom\n    minor_version   : 512\n    compatible_brands: isomiso2avc1mp41\n    encoder         : Lavf62.3.100\n  Stream #0:0(und): Video: hevc (hev1 / 0x31766568), yuv420p10le(tv, progressive), 1920x1080, q=2-31, 2500 kb/s, 60 fps, 15360 tbn (default)\n    Metadata:\n      encoder         : Lavc62.11.100 libx265\n      handler_name    : VideoHandler\n      vendor_id       : [0][0][0][0]\n    Side data:\n      cpb: bitrate max/min/avg: 2500000/0/2500000 buffer size: 2500000 vbv_delay: N/A\nframe=    0 fps=0.0 q=0.0 size=       0KiB time=N/A bitrate=N/A speed=N/A elapsed=0:00:01.08    \nframe=    0 fps=0.0 q=0.0 size=       0KiB time=N/A bitrate=N/A speed=N/A elapsed=0:00:01.62    \nframe=    0 fps=0.0 q=0.0 size=       0KiB time=N/A bitrate=N/A speed=N/A elapsed=0:00:02.16    \nframe=    0 fps=0.0 q=0.0 size=       0KiB time=N/A bitrate=N/A speed=N/A elapsed=0:00:02.68    \nframe=    0 fps=0.0 q=0.0 size=       0KiB time=N/A bitrate=N/A speed=N/A elapsed=0:00:03.19    \nframe=    0 fps=0.0 q=0.0 size=       0KiB time=N/A bitrate=N/A speed=N/A elapsed=0:00:03.72    \nframe=    0 fps=0.0 q=0.0 size=       0KiB time=N/A bitrate=N/A speed=N/A elapsed=0:00:04.23    \nframe=    0 fps=0.0 q=0.0 size=       0KiB time=N/A bitrate=N/A speed=N/A elapsed=0:00:04.76    \nframe=    0 fps=0.0 q=0.0 size=       0KiB time=N/A bitrate=N/A speed=N/A elapsed=0:00:05.29    \nframe=    0 fps=0.0 q=0.0 size=       0KiB time=N/A bitrate=N/A speed=N/A elapsed=0:00:05.79    \nframe=    0 fps=0.0 q=0.0 size=       0KiB time=N/A bitrate=N/A speed=N/A elapsed=0:00:06.31    \nframe=    0 fps=0.0 q=0.0 size=       0KiB time=N/A bitrate=N/A speed=N/A elapsed=0:00:06.83    \nframe=    0 fps=0.0 q=0.0 size=       0KiB time=N/A bitrate=N/A speed=N/A elapsed=0:00:07.35    \nframe=    0 fps=0.0 q=0.0 size=       0KiB time=N/A bitrate=N/A speed=N/A elapsed=0:00:07.87    \nframe=    0 fps=0.0 q=0.0 size=       0KiB time=N/A bitrate=N/A speed=N/A elapsed=0:00:08.40    \nframe=    0 fps=0.0 q=0.0 size=       0KiB time=N/A bitrate=N/A speed=N/A elapsed=0:00:08.94    \nframe=    0 fps=0.0 q=0.0 size=       0KiB time=N/A bitrate=N/A speed=N/A elapsed=0:00:09.47    \nframe=    0 fps=0.0 q=0.0 size=       0KiB time=N/A bitrate=N/A speed=N/A elapsed=0:00:10.01    \nframe=    1 fps=0.1 q=47.3 size=       0KiB time=-00:00:00.01 bitrate=N/A speed=N/A elapsed=0:00:10.54    \nframe=    1 fps=0.1 q=47.3 size=       0KiB time=-00:00:00.01 bitrate=N/A speed=N/A elapsed=0:00:11.07    \nframe=    2 fps=0.2 q=50.6 size=       0KiB time=00:00:00.00 bitrate=N/A speed=   0x elapsed=0:00:11.61    \nframe=    3 fps=0.2 q=51.0 size=       0KiB time=00:00:00.01 bitrate=  21.1kbits/s speed=0.00137x elapsed=0:00:12.15    \nframe=    4 fps=0.3 q=51.0 size=       0KiB time=00:00:00.03 bitrate=  10.6kbits/s speed=0.00263x elapsed=0:00:12.67    \nframe=    4 fps=0.3 q=51.0 size=       0KiB time=00:00:00.03 bitrate=  10.6kbits/s speed=0.00253x elapsed=0:00:13.18    \nframe=    5 fps=0.4 q=51.0 size=       0KiB time=00:00:00.05 bitrate=   7.0kbits/s speed=0.00364x elapsed=0:00:13.72    \nframe=    5 fps=0.4 q=51.0 size=       0KiB time=00:00:00.05 bitrate=   7.0kbits/s speed=0.0035x elapsed=0:00:14.26    \nframe=    6 fps=0.4 q=51.0 size=       0KiB time=00:00:00.06 bitrate=   5.3kbits/s speed=0.00451x elapsed=0:00:14.79    \nframe=    6 fps=0.4 q=51.0 size=       0KiB time=00:00:00.06 bitrate=   5.3kbits/s speed=0.00435x elapsed=0:00:15.31    \nframe=    7 fps=0.4 q=47.9 size=       0KiB time=00:00:00.08 bitrate=   4.2kbits/s speed=0.00526x elapsed=0:00:15.84    \nframe=    7 fps=0.4 q=47.9 size=       0KiB time=00:00:00.08 bitrate=   4.2kbits/s speed=0.00508x elapsed=0:00:16.39    \nframe=    8 fps=0.5 q=46.9 size=       0KiB time=00:00:00.10 bitrate=   3.5kbits/s speed=0.0059x elapsed=0:00:16.94    \nframe=    8 fps=0.5 q=46.9 size=       0KiB time=00:00:00.10 bitrate=   3.5kbits/s speed=0.00572x elapsed=0:00:17.48    \nframe=    9 fps=0.5 q=47.0 size=       0KiB time=00:00:00.11 bitrate=   3.0kbits/s speed=0.00648x elapsed=0:00:18.01    \nframe=    9 fps=0.5 q=47.0 size=       0KiB time=00:00:00.11 bitrate=   3.0kbits/s speed=0.00629x elapsed=0:00:18.55    \nframe=   10 fps=0.5 q=43.7 size=       0KiB time=00:00:00.13 bitrate=   2.6kbits/s speed=0.00698x elapsed=0:00:19.09    \nframe=   11 fps=0.6 q=48.9 size=       0KiB time=00:00:00.15 bitrate=   2.3kbits/s speed=0.00765x elapsed=0:00:19.61    \nframe=   11 fps=0.5 q=48.9 size=       0KiB time=00:00:00.15 bitrate=   2.3kbits/s speed=0.00744x elapsed=0:00:20.16    \nframe=   11 fps=0.5 q=48.9 size=       0KiB time=00:00:00.15 bitrate=   2.3kbits/s speed=0.00726x elapsed=0:00:20.67    \nframe=   11 fps=0.5 q=48.9 size=       0KiB time=00:00:00.15 bitrate=   2.3kbits/s speed=0.00707x elapsed=0:00:21.22    \nframe=   12 fps=0.6 q=49.0 size=       0KiB time=00:00:00.16 bitrate=   2.1kbits/s speed=0.00767x elapsed=0:00:21.73    \nframe=   13 fps=0.6 q=48.0 size=       0KiB time=00:00:00.18 bitrate=   1.9kbits/s speed=0.00824x elapsed=0:00:22.26    \nframe=   13 fps=0.6 q=48.0 size=       0KiB time=00:00:00.18 bitrate=   1.9kbits/s speed=0.00805x elapsed=0:00:22.78    \nframe=   14 fps=0.6 q=41.3 size=       0KiB time=00:00:00.20 bitrate=   1.8kbits/s speed=0.00858x elapsed=0:00:23.30    \nframe=   14 fps=0.6 q=41.3 size=       0KiB time=00:00:00.20 bitrate=   1.8kbits/s speed=0.00839x elapsed=0:00:23.83    \nframe=   15 fps=0.6 q=47.9 size=       0KiB time=00:00:00.21 bitrate=   1.6kbits/s speed=0.00889x elapsed=0:00:24.36    \nframe=   15 fps=0.6 q=47.9 size=       0KiB time=00:00:00.21 bitrate=   1.6kbits/s speed=0.0087x elapsed=0:00:24.91    \nframe=   15 fps=0.6 q=47.9 size=       0KiB time=00:00:00.21 bitrate=   1.6kbits/s speed=0.00852x elapsed=0:00:25.42    \nframe=   15 fps=0.6 q=47.9 size=       0KiB time=00:00:00.21 bitrate=   1.6kbits/s speed=0.00835x elapsed=0:00:25.95    \nframe=   15 fps=0.6 q=47.9 size=       0KiB time=00:00:00.21 bitrate=   1.6kbits/s speed=0.00818x elapsed=0:00:26.48    \nframe=   16 fps=0.6 q=47.0 size=       0KiB time=00:00:00.23 bitrate=   1.5kbits/s speed=0.00863x elapsed=0:00:27.02    \nframe=   16 fps=0.6 q=47.0 size=       0KiB time=00:00:00.23 bitrate=   1.5kbits/s speed=0.00846x elapsed=0:00:27.58    \nframe=   17 fps=0.6 q=48.0 size=       0KiB time=00:00:00.25 bitrate=   1.4kbits/s speed=0.00889x elapsed=0:00:28.11    \nframe=   18 fps=0.6 q=40.0 size=       0KiB time=00:00:00.26 bitrate=   1.3kbits/s speed=0.00931x elapsed=0:00:28.64    \nframe=   19 fps=0.7 q=44.8 size=       0KiB time=00:00:00.28 bitrate=   1.2kbits/s speed=0.00971x elapsed=0:00:29.17    \nframe=   20 fps=0.7 q=46.0 size=       0KiB time=00:00:00.30 bitrate=   1.2kbits/s speed=0.0101x elapsed=0:00:29.73    \nframe=   20 fps=0.7 q=46.0 size=       0KiB time=00:00:00.30 bitrate=   1.2kbits/s speed=0.00991x elapsed=0:00:30.27    \nframe=   21 fps=0.7 q=46.0 size=       0KiB time=00:00:00.31 bitrate=   1.1kbits/s speed=0.0103x elapsed=0:00:30.81    \nframe=   22 fps=0.7 q=46.0 size=       0KiB time=00:00:00.33 bitrate=   1.1kbits/s speed=0.0106x elapsed=0:00:31.32    \nframe=   22 fps=0.7 q=46.0 size=       0KiB time=00:00:00.33 bitrate=   1.1kbits/s speed=0.0105x elapsed=0:00:31.84    \nframe=   23 fps=0.7 q=39.6 size=       0KiB time=00:00:00.35 bitrate=   1.0kbits/s speed=0.0108x elapsed=0:00:32.37    \nframe=   24 fps=0.7 q=46.0 size=       0KiB time=00:00:00.36 bitrate=   1.0kbits/s speed=0.0111x elapsed=0:00:32.88    \nframe=   24 fps=0.7 q=46.0 size=       0KiB time=00:00:00.36 bitrate=   1.0kbits/s speed=0.011x elapsed=0:00:33.41    \nframe=   24 fps=0.7 q=46.0 size=       0KiB time=00:00:00.36 bitrate=   1.0kbits/s speed=0.0108x elapsed=0:00:33.94    \nframe=   24 fps=0.7 q=46.0 size=       0KiB time=00:00:00.36 bitrate=   1.0kbits/s speed=0.0106x elapsed=0:00:34.48    \nframe=   25 fps=0.7 q=47.0 size=       0KiB time=00:00:00.38 bitrate=   0.9kbits/s speed=0.0109x elapsed=0:00:35.00    \nframe=   25 fps=0.7 q=47.0 size=       0KiB time=00:00:00.38 bitrate=   0.9kbits/s speed=0.0108x elapsed=0:00:35.54    \nframe=   26 fps=0.7 q=44.0 size=       0KiB time=00:00:00.40 bitrate=   0.9kbits/s speed=0.0111x elapsed=0:00:36.07    \nframe=   26 fps=0.7 q=44.0 size=       0KiB time=00:00:00.40 bitrate=   0.9kbits/s speed=0.0109x elapsed=0:00:36.61    \nframe=   27 fps=0.7 q=38.3 size=       0KiB time=00:00:00.41 bitrate=   0.8kbits/s speed=0.0112x elapsed=0:00:37.13    \nframe=   28 fps=0.7 q=42.9 size=       0KiB time=00:00:00.43 bitrate=   0.8kbits/s speed=0.0115x elapsed=0:00:37.66    \nframe=   29 fps=0.8 q=43.0 size=       0KiB time=00:00:00.45 bitrate=   0.8kbits/s speed=0.0118x elapsed=0:00:38.21    \nframe=   29 fps=0.7 q=43.0 size=       0KiB time=00:00:00.45 bitrate=   0.8kbits/s speed=0.0116x elapsed=0:00:38.76    \nframe=   30 fps=0.8 q=42.0 size=       0KiB time=00:00:00.46 bitrate=   0.8kbits/s speed=0.0119x elapsed=0:00:39.31    \nframe=   32 fps=0.8 q=37.9 size=       0KiB time=00:00:00.50 bitrate=   0.7kbits/s speed=0.0125x elapsed=0:00:39.87    \nframe=   32 fps=0.8 q=37.9 size=       0KiB time=00:00:00.50 bitrate=   0.7kbits/s speed=0.0124x elapsed=0:00:40.42    \nframe=   32 fps=0.8 q=37.9 size=       0KiB time=00:00:00.50 bitrate=   0.7kbits/s speed=0.0122x elapsed=0:00:40.97    \nframe=   33 fps=0.8 q=43.0 size=       0KiB time=00:00:00.51 bitrate=   0.7kbits/s speed=0.0124x elapsed=0:00:41.51    \nframe=   33 fps=0.8 q=43.0 size=       0KiB time=00:00:00.51 bitrate=   0.7kbits/s speed=0.0123x elapsed=0:00:42.03    \nframe=   34 fps=0.8 q=43.0 size=       0KiB time=00:00:00.53 bitrate=   0.7kbits/s speed=0.0125x elapsed=0:00:42.56    \nframe=   34 fps=0.8 q=43.0 size=       0KiB time=00:00:00.53 bitrate=   0.7kbits/s speed=0.0124x elapsed=0:00:43.11    \nframe=   34 fps=0.8 q=43.0 size=       0KiB time=00:00:00.53 bitrate=   0.7kbits/s speed=0.0122x elapsed=0:00:43.65    \nframe=   34 fps=0.8 q=43.0 size=       0KiB time=00:00:00.53 bitrate=   0.7kbits/s speed=0.0121x elapsed=0:00:44.19    \nframe=   34 fps=0.8 q=43.0 size=       0KiB time=00:00:00.53 bitrate=   0.7kbits/s speed=0.0119x elapsed=0:00:44.70    \nframe=   34 fps=0.8 q=43.0 size=       0KiB time=00:00:00.53 bitrate=   0.7kbits/s speed=0.0118x elapsed=0:00:45.22    \nframe=   34 fps=0.7 q=43.0 size=       0KiB time=00:00:00.53 bitrate=   0.7kbits/s speed=0.0117x elapsed=0:00:45.76    \nframe=   36 fps=0.8 q=42.0 size=       0KiB time=00:00:00.56 bitrate=   0.6kbits/s speed=0.0122x elapsed=0:00:46.28    \nframe=   36 fps=0.8 q=42.0 size=       0KiB time=00:00:00.56 bitrate=   0.6kbits/s speed=0.0121x elapsed=0:00:46.80    \nframe=   37 fps=0.8 q=36.9 size=       0KiB time=00:00:00.58 bitrate=   0.6kbits/s speed=0.0123x elapsed=0:00:47.33    \nframe=   37 fps=0.8 q=36.9 size=       0KiB time=00:00:00.58 bitrate=   0.6kbits/s speed=0.0122x elapsed=0:00:47.84    \nframe=   37 fps=0.8 q=36.9 size=       0KiB time=00:00:00.58 bitrate=   0.6kbits/s speed=0.0121x elapsed=0:00:48.38    \nframe=   37 fps=0.8 q=36.9 size=       0KiB time=00:00:00.58 bitrate=   0.6kbits/s speed=0.0119x elapsed=0:00:48.90    \nframe=   38 fps=0.8 q=41.4 size=       0KiB time=00:00:00.60 bitrate=   0.6kbits/s speed=0.0121x elapsed=0:00:49.44    \nframe=   38 fps=0.8 q=41.4 size=       0KiB time=00:00:00.60 bitrate=   0.6kbits/s speed=0.012x elapsed=0:00:49.97    \nframe=   39 fps=0.8 q=42.0 size=       0KiB time=00:00:00.61 bitrate=   0.6kbits/s speed=0.0122x elapsed=0:00:50.50    \nframe=   39 fps=0.8 q=42.0 size=       0KiB time=00:00:00.61 bitrate=   0.6kbits/s speed=0.0121x elapsed=0:00:51.06    \nframe=   39 fps=0.8 q=42.0 size=       0KiB time=00:00:00.61 bitrate=   0.6kbits/s speed=0.012x elapsed=0:00:51.57    \nframe=   39 fps=0.7 q=42.0 size=       0KiB time=00:00:00.61 bitrate=   0.6kbits/s speed=0.0118x elapsed=0:00:52.09    \nframe=   40 fps=0.8 q=36.3 size=       0KiB time=00:00:00.63 bitrate=   0.6kbits/s speed=0.012x elapsed=0:00:52.61    \nframe=   40 fps=0.8 q=36.3 size=       0KiB time=00:00:00.63 bitrate=   0.6kbits/s speed=0.0119x elapsed=0:00:53.13    \nframe=   41 fps=0.8 q=41.9 size=       0KiB time=00:00:00.65 bitrate=   0.5kbits/s speed=0.0121x elapsed=0:00:53.66    \nframe=   42 fps=0.8 q=42.0 size=       0KiB time=00:00:00.66 bitrate=   0.5kbits/s speed=0.0123x elapsed=0:00:54.19    \nframe=   42 fps=0.8 q=42.0 size=       0KiB time=00:00:00.66 bitrate=   0.5kbits/s speed=0.0122x elapsed=0:00:54.71    \nframe=   43 fps=0.8 q=41.0 size=       0KiB time=00:00:00.68 bitrate=   0.5kbits/s speed=0.0124x elapsed=0:00:55.23    \nframe=   43 fps=0.8 q=41.0 size=       0KiB time=00:00:00.68 bitrate=   0.5kbits/s speed=0.0122x elapsed=0:00:55.80    \nframe=   43 fps=0.8 q=41.0 size=       0KiB time=00:00:00.68 bitrate=   0.5kbits/s speed=0.0121x elapsed=0:00:56.34    \nframe=   43 fps=0.8 q=41.0 size=       0KiB time=00:00:00.68 bitrate=   0.5kbits/s speed=0.012x elapsed=0:00:56.88    \nframe=   44 fps=0.8 q=41.0 size=       0KiB time=00:00:00.70 bitrate=   0.5kbits/s speed=0.0122x elapsed=0:00:57.46    \nframe=   45 fps=0.8 q=36.0 size=       0KiB time=00:00:00.71 bitrate=   0.5kbits/s speed=0.0124x elapsed=0:00:57.98    \nframe=   47 fps=0.8 q=42.0 size=       0KiB time=00:00:00.75 bitrate=   0.5kbits/s speed=0.0128x elapsed=0:00:58.50    \nframe=   47 fps=0.8 q=42.0 size=       0KiB time=00:00:00.75 bitrate=   0.5kbits/s speed=0.0127x elapsed=0:00:59.01    \nframe=   47 fps=0.8 q=42.0 size=       0KiB time=00:00:00.75 bitrate=   0.5kbits/s speed=0.0126x elapsed=0:00:59.56    \nframe=   47 fps=0.8 q=42.0 size=       0KiB time=00:00:00.75 bitrate=   0.5kbits/s speed=0.0125x elapsed=0:01:00.09    \nframe=   48 fps=0.8 q=39.9 size=       0KiB time=00:00:00.76 bitrate=   0.5kbits/s speed=0.0126x elapsed=0:01:00.66    \nframe=   48 fps=0.8 q=39.9 size=       0KiB time=00:00:00.76 bitrate=   0.5kbits/s speed=0.0125x elapsed=0:01:01.19    \nframe=   49 fps=0.8 q=39.9 size=       0KiB time=00:00:00.78 bitrate=   0.4kbits/s speed=0.0127x elapsed=0:01:01.82    \nframe=   50 fps=0.8 q=35.2 size=       0KiB time=00:00:00.80 bitrate=   0.4kbits/s speed=0.0128x elapsed=0:01:02.42    \nframe=   51 fps=0.8 q=39.9 size=       0KiB time=00:00:00.81 bitrate=   0.4kbits/s speed=0.013x elapsed=0:01:02.97    \nframe=   51 fps=0.8 q=39.9 size=       0KiB time=00:00:00.81 bitrate=   0.4kbits/s speed=0.0129x elapsed=0:01:03.52    \nframe=   51 fps=0.8 q=39.9 size=       0KiB time=00:00:00.81 bitrate=   0.4kbits/s speed=0.0128x elapsed=0:01:04.03    \nframe=   51 fps=0.8 q=39.9 size=       0KiB time=00:00:00.81 bitrate=   0.4kbits/s speed=0.0126x elapsed=0:01:04.62    \nframe=   51 fps=0.8 q=39.9 size=       0KiB time=00:00:00.81 bitrate=   0.4kbits/s speed=0.0125x elapsed=0:01:05.16    \nframe=   52 fps=0.8 q=40.0 size=       0KiB time=00:00:00.83 bitrate=   0.4kbits/s speed=0.0127x elapsed=0:01:05.70    \nframe=   53 fps=0.8 q=40.0 size=       0KiB time=00:00:00.85 bitrate=   0.4kbits/s speed=0.0128x elapsed=0:01:06.21    \nframe=   53 fps=0.8 q=40.0 size=       0KiB time=00:00:00.85 bitrate=   0.4kbits/s speed=0.0127x elapsed=0:01:06.75    \nframe=   53 fps=0.8 q=40.0 size=       0KiB time=00:00:00.85 bitrate=   0.4kbits/s speed=0.0126x elapsed=0:01:07.33    \nframe=   53 fps=0.8 q=40.0 size=       0KiB time=00:00:00.85 bitrate=   0.4kbits/s speed=0.0125x elapsed=0:01:07.88    \nframe=   53 fps=0.8 q=40.0 size=       0KiB time=00:00:00.85 bitrate=   0.4kbits/s speed=0.0124x elapsed=0:01:08.51    \nframe=   53 fps=0.8 q=40.0 size=       0KiB time=00:00:00.85 bitrate=   0.4kbits/s speed=0.0123x elapsed=0:01:09.06    \nframe=   53 fps=0.8 q=40.0 size=       0KiB time=00:00:00.85 bitrate=   0.4kbits/s speed=0.0122x elapsed=0:01:09.61    \nframe=   53 fps=0.8 q=40.0 size=       0KiB time=00:00:00.85 bitrate=   0.4kbits/s speed=0.0121x elapsed=0:01:10.20    \nframe=   54 fps=0.8 q=34.7 size=       0KiB time=00:00:00.86 bitrate=   0.4kbits/s speed=0.0122x elapsed=0:01:10.80    \nframe=   54 fps=0.8 q=34.7 size=       0KiB time=00:00:00.86 bitrate=   0.4kbits/s speed=0.0121x elapsed=0:01:11.38    \nframe=   54 fps=0.8 q=34.7 size=       0KiB time=00:00:00.86 bitrate=   0.4kbits/s speed=0.012x elapsed=0:01:11.95    \nframe=   54 fps=0.7 q=34.7 size=       0KiB time=00:00:00.86 bitrate=   0.4kbits/s speed=0.0119x elapsed=0:01:12.57    \nframe=   54 fps=0.7 q=34.7 size=       0KiB time=00:00:00.86 bitrate=   0.4kbits/s speed=0.0118x elapsed=0:01:13.16    \nframe=   55 fps=0.7 q=38.5 size=       0KiB time=00:00:00.88 bitrate=   0.4kbits/s speed=0.012x elapsed=0:01:13.79    \nframe=   56 fps=0.8 q=39.1 size=       0KiB time=00:00:00.90 bitrate=   0.4kbits/s speed=0.0121x elapsed=0:01:14.32    \nframe=   56 fps=0.7 q=39.1 size=       0KiB time=00:00:00.90 bitrate=   0.4kbits/s speed=0.012x elapsed=0:01:14.86    \nframe=   56 fps=0.7 q=39.1 size=       0KiB time=00:00:00.90 bitrate=   0.4kbits/s speed=0.0119x elapsed=0:01:15.42    \nframe=   56 fps=0.7 q=39.1 size=       0KiB time=00:00:00.90 bitrate=   0.4kbits/s speed=0.0118x elapsed=0:01:15.97    \nframe=   57 fps=0.7 q=38.0 size=       0KiB time=00:00:00.91 bitrate=   0.4kbits/s speed=0.012x elapsed=0:01:16.52    \nframe=   57 fps=0.7 q=38.0 size=       0KiB time=00:00:00.91 bitrate=   0.4kbits/s speed=0.0119x elapsed=0:01:17.03    \nframe=   57 fps=0.7 q=38.0 size=       0KiB time=00:00:00.91 bitrate=   0.4kbits/s speed=0.0118x elapsed=0:01:17.54    \nframe=   57 fps=0.7 q=38.0 size=       0KiB time=00:00:00.91 bitrate=   0.4kbits/s speed=0.0117x elapsed=0:01:18.07    \nframe=   58 fps=0.7 q=38.0 size=       0KiB time=00:00:00.93 bitrate=   0.4kbits/s speed=0.0119x elapsed=0:01:18.65    \nframe=   59 fps=0.7 q=33.9 size=       0KiB time=00:00:00.95 bitrate=   0.4kbits/s speed=0.012x elapsed=0:01:19.17    \nframe=   59 fps=0.7 q=33.9 size=       0KiB time=00:00:00.95 bitrate=   0.4kbits/s speed=0.0119x elapsed=0:01:19.69    \nframe=   61 fps=0.8 q=39.0 size=       0KiB time=00:00:00.98 bitrate=   0.4kbits/s speed=0.0123x elapsed=0:01:20.20    \nframe=   61 fps=0.8 q=39.0 size=       0KiB time=00:00:00.98 bitrate=   0.4kbits/s speed=0.0122x elapsed=0:01:20.74    \nframe=   61 fps=0.8 q=39.0 size=       0KiB time=00:00:00.98 bitrate=   0.4kbits/s speed=0.0121x elapsed=0:01:21.26    \nframe=   63 fps=0.8 q=38.0 size=     256KiB time=00:00:01.01 bitrate=2063.1kbits/s speed=0.0124x elapsed=0:01:21.78    \nframe=   64 fps=0.8 q=33.4 size=     256KiB time=00:00:01.03 bitrate=2029.8kbits/s speed=0.0126x elapsed=0:01:22.30    \nframe=   66 fps=0.8 q=40.0 size=     256KiB time=00:00:01.06 bitrate=1966.4kbits/s speed=0.0129x elapsed=0:01:22.82    \nframe=   66 fps=0.8 q=40.0 size=     256KiB time=00:00:01.06 bitrate=1966.4kbits/s speed=0.0128x elapsed=0:01:23.34    \nframe=   66 fps=0.8 q=40.0 size=     256KiB time=00:00:01.06 bitrate=1966.4kbits/s speed=0.0127x elapsed=0:01:23.89    \nframe=   66 fps=0.8 q=40.0 size=     256KiB time=00:00:01.06 bitrate=1966.4kbits/s speed=0.0126x elapsed=0:01:24.41    \nframe=   67 fps=0.8 q=38.0 size=     256KiB time=00:00:01.08 bitrate=1936.2kbits/s speed=0.0128x elapsed=0:01:24.94    \nframe=   67 fps=0.8 q=38.0 size=     256KiB time=00:00:01.08 bitrate=1936.2kbits/s speed=0.0127x elapsed=0:01:25.48    \nframe=   67 fps=0.8 q=38.0 size=     256KiB time=00:00:01.08 bitrate=1936.2kbits/s speed=0.0126x elapsed=0:01:26.01    \nframe=   68 fps=0.8 q=38.1 size=     256KiB time=00:00:01.10 bitrate=1906.8kbits/s speed=0.0127x elapsed=0:01:26.54    \nframe=   69 fps=0.8 q=33.3 size=     256KiB time=00:00:01.11 bitrate=1878.4kbits/s speed=0.0128x elapsed=0:01:27.06    \nframe=   69 fps=0.8 q=33.3 size=     256KiB time=00:00:01.11 bitrate=1878.4kbits/s speed=0.0127x elapsed=0:01:27.60    \nframe=   70 fps=0.8 q=37.1 size=     256KiB time=00:00:01.13 bitrate=1850.7kbits/s speed=0.0129x elapsed=0:01:28.12    \nframe=   70 fps=0.8 q=37.1 size=     256KiB time=00:00:01.13 bitrate=1850.7kbits/s speed=0.0128x elapsed=0:01:28.67    \nframe=   71 fps=0.8 q=38.1 size=     256KiB time=00:00:01.15 bitrate=1823.9kbits/s speed=0.0129x elapsed=0:01:29.22    \nframe=   71 fps=0.8 q=38.1 size=     256KiB time=00:00:01.15 bitrate=1823.9kbits/s speed=0.0128x elapsed=0:01:29.74    \nframe=   71 fps=0.8 q=38.1 size=     256KiB time=00:00:01.15 bitrate=1823.9kbits/s speed=0.0127x elapsed=0:01:30.27    \nframe=   72 fps=0.8 q=37.3 size=     256KiB time=00:00:01.16 bitrate=1797.9kbits/s speed=0.0128x elapsed=0:01:30.82    \nframe=   72 fps=0.8 q=37.3 size=     256KiB time=00:00:01.16 bitrate=1797.9kbits/s speed=0.0128x elapsed=0:01:31.37    \nframe=   74 fps=0.8 q=32.4 size=     256KiB time=00:00:01.20 bitrate=1747.9kbits/s speed=0.0131x elapsed=0:01:31.90    \nframe=   75 fps=0.8 q=37.0 size=     256KiB time=00:00:01.21 bitrate=1724.0kbits/s speed=0.0132x elapsed=0:01:32.45    \nframe=   76 fps=0.8 q=38.0 size=     256KiB time=00:00:01.23 bitrate=1700.7kbits/s speed=0.0133x elapsed=0:01:32.98    \nframe=   76 fps=0.8 q=38.0 size=     256KiB time=00:00:01.23 bitrate=1700.7kbits/s speed=0.0132x elapsed=0:01:33.52    \nframe=   76 fps=0.8 q=38.0 size=     256KiB time=00:00:01.23 bitrate=1700.7kbits/s speed=0.0131x elapsed=0:01:34.03    \nframe=   78 fps=0.8 q=37.1 size=     256KiB time=00:00:01.26 bitrate=1655.9kbits/s speed=0.0134x elapsed=0:01:34.55    \nframe=   78 fps=0.8 q=37.1 size=     256KiB time=00:00:01.26 bitrate=1655.9kbits/s speed=0.0133x elapsed=0:01:35.09    \nframe=   78 fps=0.8 q=37.1 size=     256KiB time=00:00:01.26 bitrate=1655.9kbits/s speed=0.0132x elapsed=0:01:35.60    \nframe=   79 fps=0.8 q=32.3 size=     256KiB time=00:00:01.28 bitrate=1634.4kbits/s speed=0.0133x elapsed=0:01:36.14    \nframe=   80 fps=0.8 q=35.4 size=     256KiB time=00:00:01.30 bitrate=1613.5kbits/s speed=0.0134x elapsed=0:01:36.67    \nframe=   80 fps=0.8 q=35.4 size=     256KiB time=00:00:01.30 bitrate=1613.5kbits/s speed=0.0134x elapsed=0:01:37.18    \nframe=   80 fps=0.8 q=35.4 size=     256KiB time=00:00:01.30 bitrate=1613.5kbits/s speed=0.0133x elapsed=0:01:37.70    \nframe=   80 fps=0.8 q=35.4 size=     256KiB time=00:00:01.30 bitrate=1613.5kbits/s speed=0.0132x elapsed=0:01:38.23    \nframe=   80 fps=0.8 q=35.4 size=     256KiB time=00:00:01.30 bitrate=1613.5kbits/s speed=0.0132x elapsed=0:01:38.75    \nframe=   81 fps=0.8 q=37.1 size=     256KiB time=00:00:01.30 bitrate=1613.5kbits/s speed=0.0131x elapsed=0:01:39.28    \nframe=   81 fps=0.8 q=37.1 size=     256KiB time=00:00:01.31 bitrate=1593.0kbits/s speed=0.0132x elapsed=0:01:39.84    \nframe=   82 fps=0.8 q=32.1 size=     256KiB time=00:00:01.33 bitrate=1573.1kbits/s speed=0.0133x elapsed=0:01:40.39    \nframe=   83 fps=0.8 q=35.8 size=     256KiB time=00:00:01.35 bitrate=1553.7kbits/s speed=0.0134x elapsed=0:01:40.94    \nframe=   83 fps=0.8 q=35.8 size=     256KiB time=00:00:01.35 bitrate=1553.7kbits/s speed=0.0133x elapsed=0:01:41.47    \nframe=   85 fps=0.8 q=36.0 size=     256KiB time=00:00:01.38 bitrate=1516.3kbits/s speed=0.0136x elapsed=0:01:42.01    \nframe=   86 fps=0.8 q=31.8 size=     256KiB time=00:00:01.40 bitrate=1498.2kbits/s speed=0.0137x elapsed=0:01:42.55    \nframe=   86 fps=0.8 q=31.8 size=     256KiB time=00:00:01.40 bitrate=1498.2kbits/s speed=0.0136x elapsed=0:01:43.07    \nframe=   87 fps=0.8 q=35.4 size=     256KiB time=00:00:01.41 bitrate=1480.6kbits/s speed=0.0137x elapsed=0:01:43.61    \nframe=   88 fps=0.8 q=36.1 size=     256KiB time=00:00:01.43 bitrate=1463.4kbits/s speed=0.0138x elapsed=0:01:44.16    \nframe=   89 fps=0.9 q=31.5 size=     256KiB time=00:00:01.45 bitrate=1446.6kbits/s speed=0.0138x elapsed=0:01:44.69    \nframe=   90 fps=0.9 q=35.2 size=     256KiB time=00:00:01.46 bitrate=1430.1kbits/s speed=0.0139x elapsed=0:01:45.22    \nframe=   90 fps=0.9 q=35.2 size=     256KiB time=00:00:01.46 bitrate=1430.1kbits/s speed=0.0139x elapsed=0:01:45.74    \nframe=   90 fps=0.8 q=35.2 size=     256KiB time=00:00:01.46 bitrate=1430.1kbits/s speed=0.0138x elapsed=0:01:46.26    \nframe=   91 fps=0.9 q=36.0 size=     256KiB time=00:00:01.48 bitrate=1414.0kbits/s speed=0.0139x elapsed=0:01:46.78    \nframe=   91 fps=0.8 q=36.0 size=     256KiB time=00:00:01.48 bitrate=1414.0kbits/s speed=0.0138x elapsed=0:01:47.32    \nframe=   92 fps=0.9 q=35.3 size=     256KiB time=00:00:01.50 bitrate=1398.3kbits/s speed=0.0139x elapsed=0:01:47.88    \nframe=   93 fps=0.9 q=36.1 size=     256KiB time=00:00:01.51 bitrate=1383.0kbits/s speed=0.014x elapsed=0:01:48.41    \nframe=   94 fps=0.9 q=31.1 size=     256KiB time=00:00:01.53 bitrate=1367.9kbits/s speed=0.0141x elapsed=0:01:48.94    \nframe=   95 fps=0.9 q=35.1 size=     256KiB time=00:00:01.55 bitrate=1353.2kbits/s speed=0.0142x elapsed=0:01:49.50    \nframe=   95 fps=0.9 q=35.1 size=     256KiB time=00:00:01.55 bitrate=1353.2kbits/s speed=0.0141x elapsed=0:01:50.04    \nframe=   96 fps=0.9 q=36.1 size=     256KiB time=00:00:01.56 bitrate=1338.8kbits/s speed=0.0142x elapsed=0:01:50.56    \nframe=   96 fps=0.9 q=36.1 size=     256KiB time=00:00:01.56 bitrate=1338.8kbits/s speed=0.0141x elapsed=0:01:51.10    \nframe=   96 fps=0.9 q=36.1 size=     256KiB time=00:00:01.56 bitrate=1338.8kbits/s speed=0.014x elapsed=0:01:51.63    \nframe=   96 fps=0.9 q=36.1 size=     256KiB time=00:00:01.56 bitrate=1338.8kbits/s speed=0.014x elapsed=0:01:52.17    \nframe=   97 fps=0.9 q=35.1 size=     256KiB time=00:00:01.58 bitrate=1324.7kbits/s speed=0.0141x elapsed=0:01:52.69    \nframe=   97 fps=0.9 q=35.1 size=     256KiB time=00:00:01.58 bitrate=1324.7kbits/s speed=0.014x elapsed=0:01:53.23    \nframe=   97 fps=0.9 q=35.1 size=     256KiB time=00:00:01.58 bitrate=1324.7kbits/s speed=0.0139x elapsed=0:01:53.76    \nframe=   98 fps=0.9 q=35.2 size=     256KiB time=00:00:01.60 bitrate=1310.9kbits/s speed=0.014x elapsed=0:01:54.31    \nframe=   98 fps=0.9 q=35.2 size=     256KiB time=00:00:01.60 bitrate=1310.9kbits/s speed=0.0139x elapsed=0:01:54.83    \nframe=  100 fps=0.9 q=34.3 size=     256KiB time=00:00:01.63 bitrate=1284.2kbits/s speed=0.0142x elapsed=0:01:55.36    \nframe=  100 fps=0.9 q=34.3 size=     256KiB time=00:00:01.63 bitrate=1284.2kbits/s speed=0.0141x elapsed=0:01:55.91    \nframe=  101 fps=0.9 q=35.0 size=     256KiB time=00:00:01.65 bitrate=1271.2kbits/s speed=0.0142x elapsed=0:01:56.44    \nframe=  101 fps=0.9 q=35.0 size=     256KiB time=00:00:01.65 bitrate=1271.2kbits/s speed=0.0141x elapsed=0:01:56.97    \nframe=  101 fps=0.9 q=35.0 size=     256KiB time=00:00:01.65 bitrate=1271.2kbits/s speed=0.014x elapsed=0:01:57.52    \nframe=  102 fps=0.9 q=35.1 size=     256KiB time=00:00:01.66 bitrate=1258.5kbits/s speed=0.0141x elapsed=0:01:58.07    \nframe=  102 fps=0.9 q=35.1 size=     256KiB time=00:00:01.66 bitrate=1258.5kbits/s speed=0.0141x elapsed=0:01:58.59    \nframe=  103 fps=0.9 q=31.2 size=     256KiB time=00:00:01.68 bitrate=1246.0kbits/s speed=0.0141x elapsed=0:01:59.12    \nframe=  103 fps=0.9 q=31.2 size=     256KiB time=00:00:01.68 bitrate=1246.0kbits/s speed=0.0141x elapsed=0:01:59.68    \nframe=  103 fps=0.9 q=31.2 size=     256KiB time=00:00:01.68 bitrate=1246.0kbits/s speed=0.014x elapsed=0:02:00.25    \nframe=  103 fps=0.9 q=31.2 size=     256KiB time=00:00:01.68 bitrate=1246.0kbits/s speed=0.0139x elapsed=0:02:00.78    \nframe=  103 fps=0.8 q=31.2 size=     256KiB time=00:00:01.68 bitrate=1246.0kbits/s speed=0.0139x elapsed=0:02:01.39    \nframe=  103 fps=0.8 q=31.2 size=     256KiB time=00:00:01.68 bitrate=1246.0kbits/s speed=0.0138x elapsed=0:02:02.09    \nframe=  103 fps=0.8 q=31.2 size=     256KiB time=00:00:01.68 bitrate=1246.0kbits/s speed=0.0137x elapsed=0:02:02.74    \nframe=  103 fps=0.8 q=31.2 size=     256KiB time=00:00:01.68 bitrate=1246.0kbits/s speed=0.0136x elapsed=0:02:03.37    \nframe=  104 fps=0.8 q=33.8 size=     256KiB time=00:00:01.70 bitrate=1233.8kbits/s speed=0.0137x elapsed=0:02:03.92    \nframe=  104 fps=0.8 q=33.8 size=     256KiB time=00:00:01.70 bitrate=1233.8kbits/s speed=0.0137x elapsed=0:02:04.47    \nframe=  105 fps=0.8 q=36.0 size=     256KiB time=00:00:01.71 bitrate=1221.8kbits/s speed=0.0137x elapsed=0:02:04.99    \nframe=  105 fps=0.8 q=36.0 size=     256KiB time=00:00:01.71 bitrate=1221.8kbits/s speed=0.0137x elapsed=0:02:05.50    \nframe=  105 fps=0.8 q=36.0 size=     256KiB time=00:00:01.71 bitrate=1221.8kbits/s speed=0.0136x elapsed=0:02:06.01    \nframe=  106 fps=0.8 q=31.1 size=     256KiB time=00:00:01.73 bitrate=1210.1kbits/s speed=0.0137x elapsed=0:02:06.57    \nframe=  106 fps=0.8 q=31.1 size=     256KiB time=00:00:01.73 bitrate=1210.1kbits/s speed=0.0136x elapsed=0:02:07.09    \nframe=  107 fps=0.8 q=34.6 size=     256KiB time=00:00:01.75 bitrate=1198.6kbits/s speed=0.0137x elapsed=0:02:07.69    \nframe=  107 fps=0.8 q=34.6 size=     256KiB time=00:00:01.75 bitrate=1198.6kbits/s speed=0.0136x elapsed=0:02:08.28    \nframe=  107 fps=0.8 q=34.6 size=     256KiB time=00:00:01.75 bitrate=1198.6kbits/s speed=0.0136x elapsed=0:02:08.84    \nframe=  107 fps=0.8 q=34.6 size=     256KiB time=00:00:01.75 bitrate=1198.6kbits/s speed=0.0135x elapsed=0:02:09.47    \nframe=  108 fps=0.8 q=35.3 size=     256KiB time=00:00:01.76 bitrate=1187.3kbits/s speed=0.0136x elapsed=0:02:10.04    \nframe=  108 fps=0.8 q=35.3 size=     256KiB time=00:00:01.76 bitrate=1187.3kbits/s speed=0.0135x elapsed=0:02:10.57    \nframe=  108 fps=0.8 q=35.3 size=     256KiB time=00:00:01.76 bitrate=1187.3kbits/s speed=0.0135x elapsed=0:02:11.13    \nframe=  108 fps=0.8 q=35.3 size=     256KiB time=00:00:01.76 bitrate=1187.3kbits/s speed=0.0134x elapsed=0:02:11.72    \nframe=  108 fps=0.8 q=35.3 size=     256KiB time=00:00:01.76 bitrate=1187.3kbits/s speed=0.0134x elapsed=0:02:12.30    \nframe=  108 fps=0.8 q=35.3 size=     256KiB time=00:00:01.76 bitrate=1187.3kbits/s speed=0.0133x elapsed=0:02:12.84    \nframe=  109 fps=0.8 q=34.2 size=     256KiB time=00:00:01.78 bitrate=1176.2kbits/s speed=0.0134x elapsed=0:02:13.44    \nframe=  110 fps=0.8 q=30.7 size=     256KiB time=00:00:01.80 bitrate=1165.3kbits/s speed=0.0134x elapsed=0:02:14.01    \nframe=  110 fps=0.8 q=30.7 size=     256KiB time=00:00:01.80 bitrate=1165.3kbits/s speed=0.0134x elapsed=0:02:14.57    \nframe=  110 fps=0.8 q=30.7 size=     256KiB time=00:00:01.80 bitrate=1165.3kbits/s speed=0.0133x elapsed=0:02:15.14    \nframe=  110 fps=0.8 q=30.7 size=     256KiB time=00:00:01.80 bitrate=1165.3kbits/s speed=0.0133x elapsed=0:02:15.70    \nframe=  111 fps=0.8 q=34.3 size=     256KiB time=00:00:01.81 bitrate=1154.6kbits/s speed=0.0133x elapsed=0:02:16.23    \nframe=  111 fps=0.8 q=34.3 size=     256KiB time=00:00:01.81 bitrate=1154.6kbits/s speed=0.0133x elapsed=0:02:16.84    \nframe=  112 fps=0.8 q=34.2 size=     256KiB time=00:00:01.83 bitrate=1144.1kbits/s speed=0.0133x elapsed=0:02:17.39    \nframe=  112 fps=0.8 q=34.2 size=     256KiB time=00:00:01.83 bitrate=1144.1kbits/s speed=0.0133x elapsed=0:02:17.92    \nframe=  112 fps=0.8 q=34.2 size=     256KiB time=00:00:01.83 bitrate=1144.1kbits/s speed=0.0132x elapsed=0:02:18.48    \nframe=  112 fps=0.8 q=34.2 size=     256KiB time=00:00:01.83 bitrate=1144.1kbits/s speed=0.0132x elapsed=0:02:19.04    \nframe=  112 fps=0.8 q=34.2 size=     256KiB time=00:00:01.83 bitrate=1144.1kbits/s speed=0.0131x elapsed=0:02:19.66    \nframe=  112 fps=0.8 q=34.2 size=     256KiB time=00:00:01.83 bitrate=1144.1kbits/s speed=0.0131x elapsed=0:02:20.22    \nframe=  112 fps=0.8 q=34.2 size=     256KiB time=00:00:01.83 bitrate=1144.1kbits/s speed=0.013x elapsed=0:02:20.77    \nframe=  112 fps=0.8 q=34.2 size=     256KiB time=00:00:01.83 bitrate=1144.1kbits/s speed=0.013x elapsed=0:02:21.30    \nframe=  112 fps=0.8 q=34.2 size=     256KiB time=00:00:01.83 bitrate=1144.1kbits/s speed=0.0129x elapsed=0:02:21.84    \nframe=  112 fps=0.8 q=34.2 size=     256KiB time=00:00:01.83 bitrate=1144.1kbits/s speed=0.0129x elapsed=0:02:22.40    \nframe=  112 fps=0.8 q=34.2 size=     256KiB time=00:00:01.83 bitrate=1144.1kbits/s speed=0.0128x elapsed=0:02:22.95    \nframe=  112 fps=0.8 q=34.2 size=     256KiB time=00:00:01.83 bitrate=1144.1kbits/s speed=0.0128x elapsed=0:02:23.47    \nframe=  113 fps=0.8 q=34.2 size=     256KiB time=00:00:01.85 bitrate=1133.8kbits/s speed=0.0128x elapsed=0:02:24.00    \nframe=  113 fps=0.8 q=34.2 size=     256KiB time=00:00:01.85 bitrate=1133.8kbits/s speed=0.0128x elapsed=0:02:24.54    \nframe=  113 fps=0.8 q=34.2 size=     256KiB time=00:00:01.85 bitrate=1133.8kbits/s speed=0.0128x elapsed=0:02:25.08    \nframe=  114 fps=0.8 q=34.2 size=     256KiB time=00:00:01.86 bitrate=1123.7kbits/s speed=0.0128x elapsed=0:02:25.63    \nframe=  114 fps=0.8 q=34.2 size=     256KiB time=00:00:01.86 bitrate=1123.7kbits/s speed=0.0128x elapsed=0:02:26.15    \nframe=  114 fps=0.8 q=34.2 size=     256KiB time=00:00:01.86 bitrate=1123.7kbits/s speed=0.0127x elapsed=0:02:26.68    \nframe=  115 fps=0.8 q=30.3 size=     256KiB time=00:00:01.88 bitrate=1113.7kbits/s speed=0.0128x elapsed=0:02:27.23    \nframe=  116 fps=0.8 q=29.9 size=     256KiB time=00:00:01.90 bitrate=1103.9kbits/s speed=0.0129x elapsed=0:02:27.78    \nframe=  116 fps=0.8 q=29.9 size=     256KiB time=00:00:01.90 bitrate=1103.9kbits/s speed=0.0128x elapsed=0:02:28.41    \nframe=  116 fps=0.8 q=29.9 size=     256KiB time=00:00:01.90 bitrate=1103.9kbits/s speed=0.0128x elapsed=0:02:28.94    \nframe=  116 fps=0.8 q=29.9 size=     256KiB time=00:00:01.90 bitrate=1103.9kbits/s speed=0.0127x elapsed=0:02:29.51    \nframe=  116 fps=0.8 q=29.9 size=     256KiB time=00:00:01.90 bitrate=1103.9kbits/s speed=0.0127x elapsed=0:02:30.15    \nframe=  116 fps=0.8 q=29.9 size=     256KiB time=00:00:01.90 bitrate=1103.9kbits/s speed=0.0126x elapsed=0:02:30.74    \nframe=  116 fps=0.8 q=29.9 size=     256KiB time=00:00:01.90 bitrate=1103.9kbits/s speed=0.0126x elapsed=0:02:31.37    \nframe=  117 fps=0.8 q=36.1 size=     256KiB time=00:00:01.91 bitrate=1094.3kbits/s speed=0.0126x elapsed=0:02:31.90    \nframe=  117 fps=0.8 q=36.1 size=     256KiB time=00:00:01.91 bitrate=1094.3kbits/s speed=0.0126x elapsed=0:02:32.47    \nframe=  117 fps=0.8 q=36.1 size=     256KiB time=00:00:01.91 bitrate=1094.3kbits/s speed=0.0125x elapsed=0:02:33.05    \nframe=  117 fps=0.8 q=36.1 size=     256KiB time=00:00:01.91 bitrate=1094.3kbits/s speed=0.0125x elapsed=0:02:33.64    \nframe=  117 fps=0.8 q=36.1 size=     256KiB time=00:00:01.91 bitrate=1094.3kbits/s speed=0.0124x elapsed=0:02:34.21    \nframe=  118 fps=0.8 q=35.0 size=     256KiB time=00:00:01.93 bitrate=1084.9kbits/s speed=0.0125x elapsed=0:02:34.72    \nframe=  118 fps=0.8 q=35.0 size=     256KiB time=00:00:01.93 bitrate=1084.9kbits/s speed=0.0125x elapsed=0:02:35.25    \nframe=  120 fps=0.8 q=30.6 size=     256KiB time=00:00:01.95 bitrate=1075.6kbits/s speed=0.0125x elapsed=0:02:35.77    \nframe=  120 fps=0.8 q=30.6 size=     256KiB time=00:00:01.96 bitrate=1066.5kbits/s speed=0.0126x elapsed=0:02:36.31    \nframe=  120 fps=0.8 q=30.6 size=     256KiB time=00:00:01.96 bitrate=1066.5kbits/s speed=0.0125x elapsed=0:02:36.84    \nframe=  121 fps=0.8 q=30.3 size=     256KiB time=00:00:01.98 bitrate=1057.6kbits/s speed=0.0126x elapsed=0:02:37.36    \nframe=  121 fps=0.8 q=30.3 size=     256KiB time=00:00:01.98 bitrate=1057.6kbits/s speed=0.0126x elapsed=0:02:37.92    \nframe=  122 fps=0.8 q=36.0 size=     512KiB time=00:00:02.00 bitrate=2097.3kbits/s speed=0.0126x elapsed=0:02:38.46    \nframe=  122 fps=0.8 q=36.0 size=     512KiB time=00:00:02.00 bitrate=2097.3kbits/s speed=0.0126x elapsed=0:02:38.99    \nframe=  122 fps=0.8 q=36.0 size=     512KiB time=00:00:02.00 bitrate=2097.3kbits/s speed=0.0125x elapsed=0:02:39.54    \nframe=  122 fps=0.8 q=36.0 size=     512KiB time=00:00:02.00 bitrate=2097.3kbits/s speed=0.0125x elapsed=0:02:40.07    \nframe=  122 fps=0.8 q=36.0 size=     512KiB time=00:00:02.00 bitrate=2097.3kbits/s speed=0.0125x elapsed=0:02:40.59    \nframe=  122 fps=0.8 q=36.0 size=     512KiB time=00:00:02.00 bitrate=2097.3kbits/s speed=0.0124x elapsed=0:02:41.11    \nframe=  122 fps=0.8 q=36.0 size=     512KiB time=00:00:02.00 bitrate=2097.3kbits/s speed=0.0124x elapsed=0:02:41.63    \nframe=  122 fps=0.8 q=36.0 size=     512KiB time=00:00:02.00 bitrate=2097.3kbits/s speed=0.0123x elapsed=0:02:42.16    \nframe=  122 fps=0.7 q=36.0 size=     512KiB time=00:00:02.00 bitrate=2097.3kbits/s speed=0.0123x elapsed=0:02:42.71    \nframe=  122 fps=0.7 q=36.0 size=     512KiB time=00:00:02.00 bitrate=2097.3kbits/s speed=0.0123x elapsed=0:02:43.23    \nframe=  123 fps=0.8 q=36.0 size=     512KiB time=00:00:02.01 bitrate=2080.0kbits/s speed=0.0123x elapsed=0:02:43.78    \nframe=  125 fps=0.8 q=30.8 size=     512KiB time=00:00:02.05 bitrate=2046.2kbits/s speed=0.0125x elapsed=0:02:44.32    \nframe=  125 fps=0.8 q=30.8 size=     512KiB time=00:00:02.05 bitrate=2046.2kbits/s speed=0.0124x elapsed=0:02:44.84    \nframe=  125 fps=0.8 q=30.8 size=     512KiB time=00:00:02.05 bitrate=2046.2kbits/s speed=0.0124x elapsed=0:02:45.38    \nframe=  126 fps=0.8 q=32.0 size=     512KiB time=00:00:02.06 bitrate=2029.7kbits/s speed=0.0125x elapsed=0:02:45.89    \nframe=  128 fps=0.8 q=36.1 size=     512KiB time=00:00:02.10 bitrate=1997.5kbits/s speed=0.0126x elapsed=0:02:46.41    \nframe=  128 fps=0.8 q=36.1 size=     512KiB time=00:00:02.10 bitrate=1997.5kbits/s speed=0.0126x elapsed=0:02:46.93    \nframe=  128 fps=0.8 q=36.1 size=     512KiB time=00:00:02.10 bitrate=1997.5kbits/s speed=0.0125x elapsed=0:02:47.45    \nframe=  128 fps=0.8 q=36.1 size=     512KiB time=00:00:02.10 bitrate=1997.5kbits/s speed=0.0125x elapsed=0:02:47.96    \nframe=  128 fps=0.8 q=36.1 size=     512KiB time=00:00:02.10 bitrate=1997.5kbits/s speed=0.0125x elapsed=0:02:48.50    \nframe=  130 fps=0.8 q=30.7 size=     512KiB time=00:00:02.13 bitrate=1966.2kbits/s speed=0.0126x elapsed=0:02:49.04    \nframe=  131 fps=0.8 q=33.6 size=     512KiB time=00:00:02.15 bitrate=1951.0kbits/s speed=0.0127x elapsed=0:02:49.59    \nframe=  132 fps=0.8 q=35.1 size=     512KiB time=00:00:02.15 bitrate=1951.0kbits/s speed=0.0126x elapsed=0:02:50.12    \nframe=  133 fps=0.8 q=35.3 size=     512KiB time=00:00:02.18 bitrate=1921.2kbits/s speed=0.0128x elapsed=0:02:50.67    \nframe=  133 fps=0.8 q=35.3 size=     512KiB time=00:00:02.18 bitrate=1921.2kbits/s speed=0.0128x elapsed=0:02:51.19    \nframe=  133 fps=0.8 q=35.3 size=     512KiB time=00:00:02.18 bitrate=1921.2kbits/s speed=0.0127x elapsed=0:02:51.73    \nframe=  133 fps=0.8 q=35.3 size=     512KiB time=00:00:02.18 bitrate=1921.2kbits/s speed=0.0127x elapsed=0:02:52.27    \nframe=  135 fps=0.8 q=33.3 size=     512KiB time=00:00:02.21 bitrate=1892.3kbits/s speed=0.0128x elapsed=0:02:52.82    \nframe=  135 fps=0.8 q=33.3 size=     512KiB time=00:00:02.21 bitrate=1892.3kbits/s speed=0.0128x elapsed=0:02:53.33    \nframe=  136 fps=0.8 q=34.4 size=     512KiB time=00:00:02.23 bitrate=1878.2kbits/s speed=0.0128x elapsed=0:02:53.86    \nframe=  136 fps=0.8 q=34.4 size=     512KiB time=00:00:02.23 bitrate=1878.2kbits/s speed=0.0128x elapsed=0:02:54.38    \nframe=  137 fps=0.8 q=34.7 size=     512KiB time=00:00:02.25 bitrate=1864.3kbits/s speed=0.0129x elapsed=0:02:54.92    \nframe=  138 fps=0.8 q=34.3 size=     512KiB time=00:00:02.26 bitrate=1850.6kbits/s speed=0.0129x elapsed=0:02:55.47    \nframe=  138 fps=0.8 q=34.3 size=     512KiB time=00:00:02.26 bitrate=1850.6kbits/s speed=0.0129x elapsed=0:02:56.02    \nframe=  138 fps=0.8 q=34.3 size=     512KiB time=00:00:02.26 bitrate=1850.6kbits/s speed=0.0128x elapsed=0:02:56.56    \nframe=  139 fps=0.8 q=30.5 size=     512KiB time=00:00:02.28 bitrate=1837.1kbits/s speed=0.0129x elapsed=0:02:57.10    \nframe=  140 fps=0.8 q=33.6 size=     512KiB time=00:00:02.30 bitrate=1823.8kbits/s speed=0.0129x elapsed=0:02:57.62    \nframe=  140 fps=0.8 q=33.6 size=     512KiB time=00:00:02.30 bitrate=1823.8kbits/s speed=0.0129x elapsed=0:02:58.15    \nframe=  140 fps=0.8 q=33.6 size=     512KiB time=00:00:02.30 bitrate=1823.8kbits/s speed=0.0129x elapsed=0:02:58.70    \nframe=  141 fps=0.8 q=34.1 size=     512KiB time=00:00:02.31 bitrate=1810.6kbits/s speed=0.0129x elapsed=0:02:59.25    \nframe=  141 fps=0.8 q=34.1 size=     512KiB time=00:00:02.31 bitrate=1810.6kbits/s speed=0.0129x elapsed=0:02:59.79    \nframe=  141 fps=0.8 q=34.1 size=     512KiB time=00:00:02.31 bitrate=1810.6kbits/s speed=0.0128x elapsed=0:03:00.32    \nframe=  141 fps=0.8 q=34.1 size=     512KiB time=00:00:02.31 bitrate=1810.6kbits/s speed=0.0128x elapsed=0:03:00.86    \nframe=  141 fps=0.8 q=34.1 size=     512KiB time=00:00:02.31 bitrate=1810.6kbits/s speed=0.0128x elapsed=0:03:01.41    \nframe=  142 fps=0.8 q=34.2 size=     512KiB time=00:00:02.33 bitrate=1797.7kbits/s speed=0.0128x elapsed=0:03:01.96    \nframe=  143 fps=0.8 q=34.3 size=     512KiB time=00:00:02.35 bitrate=1785.0kbits/s speed=0.0129x elapsed=0:03:02.50    \nframe=  143 fps=0.8 q=34.3 size=     512KiB time=00:00:02.35 bitrate=1785.0kbits/s speed=0.0128x elapsed=0:03:03.02    \nframe=  144 fps=0.8 q=30.3 size=     512KiB time=00:00:02.36 bitrate=1772.4kbits/s speed=0.0129x elapsed=0:03:03.56    \nframe=  144 fps=0.8 q=30.3 size=     512KiB time=00:00:02.36 bitrate=1772.4kbits/s speed=0.0129x elapsed=0:03:04.09    \nframe=  145 fps=0.8 q=29.7 size=     512KiB time=00:00:02.38 bitrate=1760.0kbits/s speed=0.0129x elapsed=0:03:04.63    \nframe=  146 fps=0.8 q=35.3 size=     512KiB time=00:00:02.40 bitrate=1747.8kbits/s speed=0.013x elapsed=0:03:05.17    \nframe=  146 fps=0.8 q=35.3 size=     512KiB time=00:00:02.40 bitrate=1747.8kbits/s speed=0.0129x elapsed=0:03:05.69    \nframe=  146 fps=0.8 q=35.3 size=     512KiB time=00:00:02.40 bitrate=1747.8kbits/s speed=0.0129x elapsed=0:03:06.21    \nframe=  146 fps=0.8 q=35.3 size=     512KiB time=00:00:02.40 bitrate=1747.8kbits/s speed=0.0129x elapsed=0:03:06.73    \nframe=  147 fps=0.8 q=34.1 size=     512KiB time=00:00:02.41 bitrate=1735.7kbits/s speed=0.0129x elapsed=0:03:07.28    \nframe=  147 fps=0.8 q=34.1 size=     512KiB time=00:00:02.41 bitrate=1735.7kbits/s speed=0.0129x elapsed=0:03:07.82    \nframe=  148 fps=0.8 q=34.4 size=     512KiB time=00:00:02.43 bitrate=1723.8kbits/s speed=0.0129x elapsed=0:03:08.35    \nframe=  149 fps=0.8 q=29.8 size=     512KiB time=00:00:02.45 bitrate=1712.1kbits/s speed=0.013x elapsed=0:03:08.87    \nframe=  150 fps=0.8 q=29.7 size=     512KiB time=00:00:02.46 bitrate=1700.5kbits/s speed=0.013x elapsed=0:03:09.41    \nframe=  150 fps=0.8 q=29.7 size=     512KiB time=00:00:02.46 bitrate=1700.5kbits/s speed=0.013x elapsed=0:03:09.95    \nframe=  150 fps=0.8 q=29.7 size=     512KiB time=00:00:02.46 bitrate=1700.5kbits/s speed=0.0129x elapsed=0:03:10.47    \nframe=  151 fps=0.8 q=34.2 size=     512KiB time=00:00:02.48 bitrate=1689.1kbits/s speed=0.013x elapsed=0:03:11.00    \nframe=  151 fps=0.8 q=34.2 size=     512KiB time=00:00:02.48 bitrate=1689.1kbits/s speed=0.013x elapsed=0:03:11.51    \nframe=  151 fps=0.8 q=34.2 size=     512KiB time=00:00:02.48 bitrate=1689.1kbits/s speed=0.0129x elapsed=0:03:12.05    \nframe=  151 fps=0.8 q=34.2 size=     512KiB time=00:00:02.48 bitrate=1689.1kbits/s speed=0.0129x elapsed=0:03:12.60    \nframe=  151 fps=0.8 q=34.2 size=     512KiB time=00:00:02.48 bitrate=1689.1kbits/s speed=0.0129x elapsed=0:03:13.13    \nframe=  152 fps=0.8 q=34.4 size=     512KiB time=00:00:02.50 bitrate=1677.9kbits/s speed=0.0129x elapsed=0:03:13.66    \nframe=  152 fps=0.8 q=34.4 size=     512KiB time=00:00:02.50 bitrate=1677.9kbits/s speed=0.0129x elapsed=0:03:14.16    \nframe=  153 fps=0.8 q=34.3 size=     512KiB time=00:00:02.51 bitrate=1666.8kbits/s speed=0.0129x elapsed=0:03:14.68    \nframe=  154 fps=0.8 q=29.6 size=     512KiB time=00:00:02.53 bitrate=1655.8kbits/s speed=0.013x elapsed=0:03:15.22    \nframe=  155 fps=0.8 q=33.3 size=     512KiB time=00:00:02.55 bitrate=1645.0kbits/s speed=0.013x elapsed=0:03:15.74    \nframe=  156 fps=0.8 q=35.0 size=     512KiB time=00:00:02.56 bitrate=1634.3kbits/s speed=0.0131x elapsed=0:03:16.27    \nframe=  156 fps=0.8 q=35.0 size=     512KiB time=00:00:02.56 bitrate=1634.3kbits/s speed=0.013x elapsed=0:03:16.80    \nframe=  157 fps=0.8 q=33.6 size=     512KiB time=00:00:02.58 bitrate=1623.7kbits/s speed=0.0131x elapsed=0:03:17.34    \nframe=  157 fps=0.8 q=33.6 size=     512KiB time=00:00:02.58 bitrate=1623.7kbits/s speed=0.0131x elapsed=0:03:17.86    \nframe=  158 fps=0.8 q=29.8 size=     512KiB time=00:00:02.60 bitrate=1613.3kbits/s speed=0.0131x elapsed=0:03:18.40    \nframe=  158 fps=0.8 q=29.8 size=     512KiB time=00:00:02.60 bitrate=1613.3kbits/s speed=0.0131x elapsed=0:03:18.94    \nframe=  158 fps=0.8 q=29.8 size=     512KiB time=00:00:02.60 bitrate=1613.3kbits/s speed=0.013x elapsed=0:03:19.52    \nframe=  159 fps=0.8 q=32.2 size=     512KiB time=00:00:02.61 bitrate=1603.1kbits/s speed=0.0131x elapsed=0:03:20.06    \nframe=  159 fps=0.8 q=32.2 size=     512KiB time=00:00:02.61 bitrate=1603.1kbits/s speed=0.013x elapsed=0:03:20.64    \nframe=  159 fps=0.8 q=32.2 size=     512KiB time=00:00:02.61 bitrate=1603.1kbits/s speed=0.013x elapsed=0:03:21.20    \nframe=  159 fps=0.8 q=32.2 size=     512KiB time=00:00:02.61 bitrate=1603.1kbits/s speed=0.013x elapsed=0:03:21.82    \nframe=  159 fps=0.8 q=32.2 size=     512KiB time=00:00:02.61 bitrate=1603.1kbits/s speed=0.0129x elapsed=0:03:22.46    \nframe=  159 fps=0.8 q=32.2 size=     512KiB time=00:00:02.61 bitrate=1603.1kbits/s speed=0.0129x elapsed=0:03:23.07    \nframe=  160 fps=0.8 q=34.2 size=     512KiB time=00:00:02.61 bitrate=1603.1kbits/s speed=0.0128x elapsed=0:03:23.68    \nframe=  160 fps=0.8 q=34.2 size=     512KiB time=00:00:02.63 bitrate=1592.9kbits/s speed=0.0129x elapsed=0:03:24.26    \nframe=  160 fps=0.8 q=34.2 size=     512KiB time=00:00:02.63 bitrate=1592.9kbits/s speed=0.0129x elapsed=0:03:24.83    \nframe=  161 fps=0.8 q=33.1 size=     512KiB time=00:00:02.65 bitrate=1582.9kbits/s speed=0.0129x elapsed=0:03:25.39    \nframe=  161 fps=0.8 q=33.1 size=     512KiB time=00:00:02.65 bitrate=1582.9kbits/s speed=0.0129x elapsed=0:03:25.95    \nframe=  161 fps=0.8 q=33.1 size=     512KiB time=00:00:02.65 bitrate=1582.9kbits/s speed=0.0128x elapsed=0:03:26.49    \nframe=  162 fps=0.8 q=29.4 size=     512KiB time=00:00:02.66 bitrate=1573.0kbits/s speed=0.0129x elapsed=0:03:27.03    \nframe=  162 fps=0.8 q=29.4 size=     512KiB time=00:00:02.66 bitrate=1573.0kbits/s speed=0.0128x elapsed=0:03:27.62    \nframe=  162 fps=0.8 q=29.4 size=     512KiB time=00:00:02.66 bitrate=1573.0kbits/s speed=0.0128x elapsed=0:03:28.19    \nframe=  162 fps=0.8 q=29.4 size=     512KiB time=00:00:02.66 bitrate=1573.0kbits/s speed=0.0128x elapsed=0:03:28.79    \nframe=  162 fps=0.8 q=29.4 size=     512KiB time=00:00:02.66 bitrate=1573.0kbits/s speed=0.0127x elapsed=0:03:29.36    \nframe=  162 fps=0.8 q=29.4 size=     512KiB time=00:00:02.66 bitrate=1573.0kbits/s speed=0.0127x elapsed=0:03:29.95    \nframe=  162 fps=0.8 q=29.4 size=     512KiB time=00:00:02.66 bitrate=1573.0kbits/s speed=0.0127x elapsed=0:03:30.56    \nframe=  163 fps=0.8 q=33.2 size=     512KiB time=00:00:02.68 bitrate=1563.2kbits/s speed=0.0127x elapsed=0:03:31.13    \nframe=  163 fps=0.8 q=33.2 size=     512KiB time=00:00:02.68 bitrate=1563.2kbits/s speed=0.0127x elapsed=0:03:31.75    \nframe=  163 fps=0.8 q=33.2 size=     512KiB time=00:00:02.68 bitrate=1563.2kbits/s speed=0.0126x elapsed=0:03:32.31    \nframe=  163 fps=0.8 q=33.2 size=     512KiB time=00:00:02.68 bitrate=1563.2kbits/s speed=0.0126x elapsed=0:03:32.84    \nframe=  163 fps=0.8 q=33.2 size=     512KiB time=00:00:02.68 bitrate=1563.2kbits/s speed=0.0126x elapsed=0:03:33.41    \nframe=  163 fps=0.8 q=33.2 size=     512KiB time=00:00:02.68 bitrate=1563.2kbits/s speed=0.0125x elapsed=0:03:33.99    \nframe=  164 fps=0.8 q=34.3 size=     512KiB time=00:00:02.70 bitrate=1553.6kbits/s speed=0.0126x elapsed=0:03:34.57    \nframe=  164 fps=0.8 q=34.3 size=     512KiB time=00:00:02.70 bitrate=1553.6kbits/s speed=0.0126x elapsed=0:03:35.09    \nframe=  164 fps=0.8 q=34.3 size=     512KiB time=00:00:02.70 bitrate=1553.6kbits/s speed=0.0125x elapsed=0:03:35.68    \nframe=  164 fps=0.8 q=34.3 size=     512KiB time=00:00:02.70 bitrate=1553.6kbits/s speed=0.0125x elapsed=0:03:36.20    \nframe=  164 fps=0.8 q=34.3 size=     512KiB time=00:00:02.70 bitrate=1553.6kbits/s speed=0.0125x elapsed=0:03:36.74    \nframe=  164 fps=0.8 q=34.3 size=     512KiB time=00:00:02.70 bitrate=1553.6kbits/s speed=0.0124x elapsed=0:03:37.34    \nframe=  164 fps=0.8 q=34.3 size=     512KiB time=00:00:02.70 bitrate=1553.6kbits/s speed=0.0124x elapsed=0:03:37.93    \nframe=  164 fps=0.8 q=34.3 size=     512KiB time=00:00:02.70 bitrate=1553.6kbits/s speed=0.0124x elapsed=0:03:38.50    \nframe=  165 fps=0.8 q=34.1 size=     512KiB time=00:00:02.71 bitrate=1544.0kbits/s speed=0.0124x elapsed=0:03:39.16    \nframe=  165 fps=0.8 q=34.1 size=     512KiB time=00:00:02.71 bitrate=1544.0kbits/s speed=0.0124x elapsed=0:03:39.72    \nframe=  165 fps=0.7 q=34.1 size=     512KiB time=00:00:02.71 bitrate=1544.0kbits/s speed=0.0123x elapsed=0:03:40.28    \nframe=  165 fps=0.7 q=34.1 size=     512KiB time=00:00:02.71 bitrate=1544.0kbits/s speed=0.0123x elapsed=0:03:40.84    \nframe=  165 fps=0.7 q=34.1 size=     512KiB time=00:00:02.71 bitrate=1544.0kbits/s speed=0.0123x elapsed=0:03:41.41    \nframe=  165 fps=0.7 q=34.1 size=     512KiB time=00:00:02.71 bitrate=1544.0kbits/s speed=0.0122x elapsed=0:03:42.01    \nframe=  165 fps=0.7 q=34.1 size=     512KiB time=00:00:02.71 bitrate=1544.0kbits/s speed=0.0122x elapsed=0:03:42.73    \nframe=  165 fps=0.7 q=34.1 size=     512KiB time=00:00:02.71 bitrate=1544.0kbits/s speed=0.0122x elapsed=0:03:43.31    \nframe=  166 fps=0.7 q=34.3 size=     512KiB time=00:00:02.71 bitrate=1544.0kbits/s speed=0.0121x elapsed=0:03:43.90    \nframe=  166 fps=0.7 q=34.3 size=     512KiB time=00:00:02.73 bitrate=1534.6kbits/s speed=0.0122x elapsed=0:03:44.48    \nframe=  166 fps=0.7 q=34.3 size=     512KiB time=00:00:02.73 bitrate=1534.6kbits/s speed=0.0121x elapsed=0:03:45.14    \nframe=  166 fps=0.7 q=34.3 size=     512KiB time=00:00:02.73 bitrate=1534.6kbits/s speed=0.0121x elapsed=0:03:45.74    \nframe=  167 fps=0.7 q=29.6 size=     512KiB time=00:00:02.75 bitrate=1525.3kbits/s speed=0.0121x elapsed=0:03:46.34    \nframe=  167 fps=0.7 q=29.6 size=     512KiB time=00:00:02.75 bitrate=1525.3kbits/s speed=0.0121x elapsed=0:03:46.90    \nframe=  167 fps=0.7 q=29.6 size=     512KiB time=00:00:02.75 bitrate=1525.3kbits/s speed=0.0121x elapsed=0:03:47.47    \nframe=  167 fps=0.7 q=29.6 size=     512KiB time=00:00:02.75 bitrate=1525.3kbits/s speed=0.0121x elapsed=0:03:48.00    \nframe=  167 fps=0.7 q=29.6 size=     512KiB time=00:00:02.75 bitrate=1525.3kbits/s speed=0.012x elapsed=0:03:48.60    \nframe=  167 fps=0.7 q=29.6 size=     512KiB time=00:00:02.75 bitrate=1525.3kbits/s speed=0.012x elapsed=0:03:49.19    \nframe=  167 fps=0.7 q=29.6 size=     512KiB time=00:00:02.75 bitrate=1525.3kbits/s speed=0.012x elapsed=0:03:49.75    \nframe=  167 fps=0.7 q=29.6 size=     512KiB time=00:00:02.75 bitrate=1525.3kbits/s speed=0.0119x elapsed=0:03:50.28    \nframe=  168 fps=0.7 q=29.3 size=     512KiB time=00:00:02.76 bitrate=1516.1kbits/s speed=0.012x elapsed=0:03:50.82    \nframe=  168 fps=0.7 q=29.3 size=     512KiB time=00:00:02.76 bitrate=1516.1kbits/s speed=0.012x elapsed=0:03:51.41    \nframe=  169 fps=0.7 q=34.0 size=     512KiB time=00:00:02.78 bitrate=1507.1kbits/s speed=0.012x elapsed=0:03:51.94    \nframe=  170 fps=0.7 q=29.6 size=     512KiB time=00:00:02.80 bitrate=1498.1kbits/s speed=0.012x elapsed=0:03:52.51    \nframe=  170 fps=0.7 q=29.6 size=     512KiB time=00:00:02.80 bitrate=1498.1kbits/s speed=0.012x elapsed=0:03:53.05    \nframe=  171 fps=0.7 q=33.3 size=     512KiB time=00:00:02.81 bitrate=1489.2kbits/s speed=0.0121x elapsed=0:03:53.62    \nframe=  172 fps=0.7 q=34.0 size=     512KiB time=00:00:02.83 bitrate=1480.5kbits/s speed=0.0121x elapsed=0:03:54.15    \nframe=  172 fps=0.7 q=34.0 size=     512KiB time=00:00:02.83 bitrate=1480.5kbits/s speed=0.0121x elapsed=0:03:54.72    \nframe=  173 fps=0.7 q=34.3 size=     512KiB time=00:00:02.85 bitrate=1471.8kbits/s speed=0.0121x elapsed=0:03:55.26    \nframe=  174 fps=0.7 q=33.4 size=     512KiB time=00:00:02.86 bitrate=1463.3kbits/s speed=0.0122x elapsed=0:03:55.80    \nframe=  174 fps=0.7 q=33.4 size=     512KiB time=00:00:02.86 bitrate=1463.3kbits/s speed=0.0121x elapsed=0:03:56.35    \nframe=  174 fps=0.7 q=33.4 size=     512KiB time=00:00:02.86 bitrate=1463.3kbits/s speed=0.0121x elapsed=0:03:56.92    \nframe=  174 fps=0.7 q=33.4 size=     512KiB time=00:00:02.86 bitrate=1463.3kbits/s speed=0.0121x elapsed=0:03:57.47    \nframe=  174 fps=0.7 q=33.4 size=     512KiB time=00:00:02.86 bitrate=1463.3kbits/s speed=0.012x elapsed=0:03:58.00    \nframe=  175 fps=0.7 q=29.6 size=     512KiB time=00:00:02.88 bitrate=1454.8kbits/s speed=0.0121x elapsed=0:03:58.52    \nframe=  175 fps=0.7 q=29.6 size=     512KiB time=00:00:02.88 bitrate=1454.8kbits/s speed=0.0121x elapsed=0:03:59.04    \nframe=  175 fps=0.7 q=29.6 size=     512KiB time=00:00:02.88 bitrate=1454.8kbits/s speed=0.012x elapsed=0:03:59.56    \nframe=  175 fps=0.7 q=29.6 size=     512KiB time=00:00:02.88 bitrate=1454.8kbits/s speed=0.012x elapsed=0:04:00.07    \nframe=  175 fps=0.7 q=29.6 size=     512KiB time=00:00:02.88 bitrate=1454.8kbits/s speed=0.012x elapsed=0:04:00.62    \nframe=  175 fps=0.7 q=29.6 size=     512KiB time=00:00:02.88 bitrate=1454.8kbits/s speed=0.012x elapsed=0:04:01.17    \nframe=  175 fps=0.7 q=29.6 size=     512KiB time=00:00:02.88 bitrate=1454.8kbits/s speed=0.0119x elapsed=0:04:01.70    \nframe=  176 fps=0.7 q=32.1 size=     512KiB time=00:00:02.90 bitrate=1446.4kbits/s speed=0.012x elapsed=0:04:02.26    \nframe=  176 fps=0.7 q=32.1 size=     512KiB time=00:00:02.90 bitrate=1446.4kbits/s speed=0.0119x elapsed=0:04:02.85    \nframe=  176 fps=0.7 q=32.1 size=     512KiB time=00:00:02.90 bitrate=1446.4kbits/s speed=0.0119x elapsed=0:04:03.50    \nframe=  176 fps=0.7 q=32.1 size=     512KiB time=00:00:02.90 bitrate=1446.4kbits/s speed=0.0119x elapsed=0:04:04.10    \nframe=  176 fps=0.7 q=32.1 size=     512KiB time=00:00:02.90 bitrate=1446.4kbits/s speed=0.0118x elapsed=0:04:04.80    \nframe=  176 fps=0.7 q=32.1 size=     512KiB time=00:00:02.90 bitrate=1446.4kbits/s speed=0.0118x elapsed=0:04:05.40    \nframe=  177 fps=0.7 q=34.1 size=     512KiB time=00:00:02.91 bitrate=1438.2kbits/s speed=0.0119x elapsed=0:04:05.99    \nframe=  177 fps=0.7 q=34.1 size=     512KiB time=00:00:02.91 bitrate=1438.2kbits/s speed=0.0118x elapsed=0:04:06.57    \nframe=  178 fps=0.7 q=29.6 size=     512KiB time=00:00:02.93 bitrate=1430.0kbits/s speed=0.0119x elapsed=0:04:07.10    \nframe=  179 fps=0.7 q=32.7 size=     512KiB time=00:00:02.95 bitrate=1421.9kbits/s speed=0.0119x elapsed=0:04:07.65    \nframe=  179 fps=0.7 q=32.7 size=     512KiB time=00:00:02.95 bitrate=1421.9kbits/s speed=0.0119x elapsed=0:04:08.19    \nframe=  179 fps=0.7 q=32.7 size=     512KiB time=00:00:02.95 bitrate=1421.9kbits/s speed=0.0119x elapsed=0:04:08.73    \nframe=  179 fps=0.7 q=32.7 size=     512KiB time=00:00:02.95 bitrate=1421.9kbits/s speed=0.0118x elapsed=0:04:09.30    \nframe=  180 fps=0.7 q=34.0 size=     512KiB time=00:00:02.96 bitrate=1413.9kbits/s speed=0.0119x elapsed=0:04:09.89    \nframe=  180 fps=0.7 q=34.0 size=     512KiB time=00:00:02.96 bitrate=1413.9kbits/s speed=0.0118x elapsed=0:04:10.42    \nframe=  180 fps=0.7 q=34.0 size=     512KiB time=00:00:02.96 bitrate=1413.9kbits/s speed=0.0118x elapsed=0:04:10.96    \nframe=  180 fps=0.7 q=34.0 size=     512KiB time=00:00:02.96 bitrate=1413.9kbits/s speed=0.0118x elapsed=0:04:11.52    \nframe=  180 fps=0.7 q=34.0 size=     512KiB time=00:00:02.96 bitrate=1413.9kbits/s speed=0.0118x elapsed=0:04:12.08    \nframe=  181 fps=0.7 q=33.6 size=     512KiB time=00:00:02.98 bitrate=1406.0kbits/s speed=0.0118x elapsed=0:04:12.61    \nframe=  182 fps=0.7 q=29.5 size=     512KiB time=00:00:03.00 bitrate=1398.2kbits/s speed=0.0118x elapsed=0:04:13.19    \nframe=  182 fps=0.7 q=29.5 size=     512KiB time=00:00:03.00 bitrate=1398.2kbits/s speed=0.0118x elapsed=0:04:13.75    \nframe=  182 fps=0.7 q=29.5 size=     512KiB time=00:00:03.00 bitrate=1398.2kbits/s speed=0.0118x elapsed=0:04:14.35    \nframe=  182 fps=0.7 q=29.5 size=     512KiB time=00:00:03.00 bitrate=1398.2kbits/s speed=0.0118x elapsed=0:04:14.90    \nframe=  182 fps=0.7 q=29.5 size=     512KiB time=00:00:03.00 bitrate=1398.2kbits/s speed=0.0117x elapsed=0:04:15.44    \nframe=  182 fps=0.7 q=29.5 size=     512KiB time=00:00:03.00 bitrate=1398.2kbits/s speed=0.0117x elapsed=0:04:16.03    \nframe=  182 fps=0.7 q=29.5 size=     512KiB time=00:00:03.00 bitrate=1398.2kbits/s speed=0.0117x elapsed=0:04:16.60    \nframe=  182 fps=0.7 q=29.5 size=     512KiB time=00:00:03.00 bitrate=1398.2kbits/s speed=0.0117x elapsed=0:04:17.15    \nframe=  182 fps=0.7 q=29.5 size=     512KiB time=00:00:03.00 bitrate=1398.2kbits/s speed=0.0116x elapsed=0:04:17.68    \nframe=  182 fps=0.7 q=29.5 size=     512KiB time=00:00:03.00 bitrate=1398.2kbits/s speed=0.0116x elapsed=0:04:18.26    \nframe=  182 fps=0.7 q=29.5 size=     512KiB time=00:00:03.00 bitrate=1398.2kbits/s speed=0.0116x elapsed=0:04:18.79    \nframe=  183 fps=0.7 q=28.3 size=     768KiB time=00:00:03.01 bitrate=2085.7kbits/s speed=0.0116x elapsed=0:04:19.32    \nframe=  183 fps=0.7 q=28.3 size=     768KiB time=00:00:03.01 bitrate=2085.7kbits/s speed=0.0116x elapsed=0:04:19.88    \nframe=  184 fps=0.7 q=34.2 size=     768KiB time=00:00:03.03 bitrate=2074.2kbits/s speed=0.0116x elapsed=0:04:20.43    \nframe=  184 fps=0.7 q=34.2 size=     768KiB time=00:00:03.03 bitrate=2074.2kbits/s speed=0.0116x elapsed=0:04:20.98    \nframe=  184 fps=0.7 q=34.2 size=     768KiB time=00:00:03.03 bitrate=2074.2kbits/s speed=0.0116x elapsed=0:04:21.50    \nframe=  184 fps=0.7 q=34.2 size=     768KiB time=00:00:03.03 bitrate=2074.2kbits/s speed=0.0116x elapsed=0:04:22.05    \nframe=  184 fps=0.7 q=34.2 size=     768KiB time=00:00:03.03 bitrate=2074.2kbits/s speed=0.0116x elapsed=0:04:22.60    \nframe=  184 fps=0.7 q=34.2 size=     768KiB time=00:00:03.03 bitrate=2074.2kbits/s speed=0.0115x elapsed=0:04:23.13    \nframe=  184 fps=0.7 q=34.2 size=     768KiB time=00:00:03.03 bitrate=2074.2kbits/s speed=0.0115x elapsed=0:04:23.65    \nframe=  184 fps=0.7 q=34.2 size=     768KiB time=00:00:03.03 bitrate=2074.2kbits/s speed=0.0115x elapsed=0:04:24.18    \nframe=  184 fps=0.7 q=34.2 size=     768KiB time=00:00:03.03 bitrate=2074.2kbits/s speed=0.0115x elapsed=0:04:24.76    \nframe=  185 fps=0.7 q=33.4 size=     768KiB time=00:00:03.05 bitrate=2062.9kbits/s speed=0.0115x elapsed=0:04:25.34    \nframe=  185 fps=0.7 q=33.4 size=     768KiB time=00:00:03.05 bitrate=2062.9kbits/s speed=0.0115x elapsed=0:04:25.90    \nframe=  185 fps=0.7 q=33.4 size=     768KiB time=00:00:03.05 bitrate=2062.9kbits/s speed=0.0114x elapsed=0:04:26.48    \nframe=  185 fps=0.7 q=33.4 size=     768KiB time=00:00:03.05 bitrate=2062.9kbits/s speed=0.0114x elapsed=0:04:27.08    \nframe=  185 fps=0.7 q=33.4 size=     768KiB time=00:00:03.05 bitrate=2062.9kbits/s speed=0.0114x elapsed=0:04:27.61    \nframe=  185 fps=0.7 q=33.4 size=     768KiB time=00:00:03.05 bitrate=2062.9kbits/s speed=0.0114x elapsed=0:04:28.16    \nframe=  185 fps=0.7 q=33.4 size=     768KiB time=00:00:03.05 bitrate=2062.9kbits/s speed=0.0113x elapsed=0:04:28.73    \nframe=  185 fps=0.7 q=33.4 size=     768KiB time=00:00:03.05 bitrate=2062.9kbits/s speed=0.0113x elapsed=0:04:29.26    \nframe=  185 fps=0.7 q=33.4 size=     768KiB time=00:00:03.05 bitrate=2062.9kbits/s speed=0.0113x elapsed=0:04:29.80    \nframe=  185 fps=0.7 q=33.4 size=     768KiB time=00:00:03.05 bitrate=2062.9kbits/s speed=0.0113x elapsed=0:04:30.35    \nframe=  187 fps=0.7 q=29.5 size=     768KiB time=00:00:03.06 bitrate=2051.7kbits/s speed=0.0113x elapsed=0:04:30.92    \nframe=  187 fps=0.7 q=29.5 size=     768KiB time=00:00:03.08 bitrate=2040.6kbits/s speed=0.0114x elapsed=0:04:31.47    \nframe=  188 fps=0.7 q=28.8 size=     768KiB time=00:00:03.10 bitrate=2029.6kbits/s speed=0.0114x elapsed=0:04:32.00    \nframe=  188 fps=0.7 q=28.8 size=     768KiB time=00:00:03.10 bitrate=2029.6kbits/s speed=0.0114x elapsed=0:04:32.51    \nframe=  188 fps=0.7 q=28.8 size=     768KiB time=00:00:03.10 bitrate=2029.6kbits/s speed=0.0114x elapsed=0:04:33.08    \nframe=  188 fps=0.7 q=28.8 size=     768KiB time=00:00:03.10 bitrate=2029.6kbits/s speed=0.0113x elapsed=0:04:33.64    \nframe=  188 fps=0.7 q=28.8 size=     768KiB time=00:00:03.10 bitrate=2029.6kbits/s speed=0.0113x elapsed=0:04:34.16    \nframe=  189 fps=0.7 q=35.0 size=     768KiB time=00:00:03.11 bitrate=2018.8kbits/s speed=0.0113x elapsed=0:04:34.68    \nframe=  189 fps=0.7 q=35.0 size=     768KiB time=00:00:03.11 bitrate=2018.8kbits/s speed=0.0113x elapsed=0:04:35.23    \nframe=  190 fps=0.7 q=34.1 size=     768KiB time=00:00:03.13 bitrate=2008.0kbits/s speed=0.0114x elapsed=0:04:35.76    \nframe=  191 fps=0.7 q=34.1 size=     768KiB time=00:00:03.15 bitrate=1997.4kbits/s speed=0.0114x elapsed=0:04:36.29    \nframe=  191 fps=0.7 q=34.1 size=     768KiB time=00:00:03.15 bitrate=1997.4kbits/s speed=0.0114x elapsed=0:04:36.87    \nframe=  192 fps=0.7 q=29.3 size=     768KiB time=00:00:03.16 bitrate=1986.9kbits/s speed=0.0114x elapsed=0:04:37.46    \nframe=  192 fps=0.7 q=29.3 size=     768KiB time=00:00:03.16 bitrate=1986.9kbits/s speed=0.0114x elapsed=0:04:37.99    \nframe=  192 fps=0.7 q=29.3 size=     768KiB time=00:00:03.16 bitrate=1986.9kbits/s speed=0.0114x elapsed=0:04:38.51    \nframe=  192 fps=0.7 q=29.3 size=     768KiB time=00:00:03.16 bitrate=1986.9kbits/s speed=0.0113x elapsed=0:04:39.11    \nframe=  192 fps=0.7 q=29.3 size=     768KiB time=00:00:03.16 bitrate=1986.9kbits/s speed=0.0113x elapsed=0:04:39.66    \nframe=  192 fps=0.7 q=29.3 size=     768KiB time=00:00:03.16 bitrate=1986.9kbits/s speed=0.0113x elapsed=0:04:40.23    \nframe=  193 fps=0.7 q=28.6 size=     768KiB time=00:00:03.18 bitrate=1976.5kbits/s speed=0.0113x elapsed=0:04:40.76    \nframe=  194 fps=0.7 q=35.2 size=     768KiB time=00:00:03.20 bitrate=1966.2kbits/s speed=0.0114x elapsed=0:04:41.31    \nframe=  194 fps=0.7 q=35.2 size=     768KiB time=00:00:03.20 bitrate=1966.2kbits/s speed=0.0114x elapsed=0:04:41.86    \nframe=  194 fps=0.7 q=35.2 size=     768KiB time=00:00:03.20 bitrate=1966.2kbits/s speed=0.0113x elapsed=0:04:42.39    \nframe=  194 fps=0.7 q=35.2 size=     768KiB time=00:00:03.20 bitrate=1966.2kbits/s speed=0.0113x elapsed=0:04:42.96    \nframe=  194 fps=0.7 q=35.2 size=     768KiB time=00:00:03.20 bitrate=1966.2kbits/s speed=0.0113x elapsed=0:04:43.51    \nframe=  194 fps=0.7 q=35.2 size=     768KiB time=00:00:03.20 bitrate=1966.2kbits/s speed=0.0113x elapsed=0:04:44.08    \nframe=  194 fps=0.7 q=35.2 size=     768KiB time=00:00:03.20 bitrate=1966.2kbits/s speed=0.0112x elapsed=0:04:44.66    \nframe=  194 fps=0.7 q=35.2 size=     768KiB time=00:00:03.20 bitrate=1966.2kbits/s speed=0.0112x elapsed=0:04:45.27    \nframe=  194 fps=0.7 q=35.2 size=     768KiB time=00:00:03.20 bitrate=1966.2kbits/s speed=0.0112x elapsed=0:04:45.85    \nframe=  194 fps=0.7 q=35.2 size=     768KiB time=00:00:03.20 bitrate=1966.2kbits/s speed=0.0112x elapsed=0:04:46.51    \nframe=  194 fps=0.7 q=35.2 size=     768KiB time=00:00:03.20 bitrate=1966.2kbits/s speed=0.0111x elapsed=0:04:47.12    \nframe=  194 fps=0.7 q=35.2 size=     768KiB time=00:00:03.20 bitrate=1966.2kbits/s speed=0.0111x elapsed=0:04:47.79    \nframe=  195 fps=0.7 q=34.1 size=     768KiB time=00:00:03.21 bitrate=1956.0kbits/s speed=0.0112x elapsed=0:04:48.40    \nframe=  195 fps=0.7 q=34.1 size=     768KiB time=00:00:03.21 bitrate=1956.0kbits/s speed=0.0111x elapsed=0:04:48.97    \nframe=  195 fps=0.7 q=34.1 size=     768KiB time=00:00:03.21 bitrate=1956.0kbits/s speed=0.0111x elapsed=0:04:49.52    \nframe=  195 fps=0.7 q=34.1 size=     768KiB time=00:00:03.21 bitrate=1956.0kbits/s speed=0.0111x elapsed=0:04:50.13    \nframe=  196 fps=0.7 q=34.2 size=     768KiB time=00:00:03.23 bitrate=1945.9kbits/s speed=0.0111x elapsed=0:04:50.73    \nframe=  196 fps=0.7 q=34.2 size=     768KiB time=00:00:03.23 bitrate=1945.9kbits/s speed=0.0111x elapsed=0:04:51.32    \nframe=  197 fps=0.7 q=29.5 size=     768KiB time=00:00:03.25 bitrate=1935.9kbits/s speed=0.0111x elapsed=0:04:51.86    \nframe=  197 fps=0.7 q=29.5 size=     768KiB time=00:00:03.25 bitrate=1935.9kbits/s speed=0.0111x elapsed=0:04:52.38    \nframe=  198 fps=0.7 q=33.6 size=     768KiB time=00:00:03.26 bitrate=1926.1kbits/s speed=0.0112x elapsed=0:04:52.95    \nframe=  198 fps=0.7 q=33.6 size=     768KiB time=00:00:03.26 bitrate=1926.1kbits/s speed=0.0111x elapsed=0:04:53.52    \nframe=  199 fps=0.7 q=34.0 size=     768KiB time=00:00:03.28 bitrate=1916.3kbits/s speed=0.0112x elapsed=0:04:54.11    \nframe=  200 fps=0.7 q=30.0 size=     768KiB time=00:00:03.30 bitrate=1906.6kbits/s speed=0.0112x elapsed=0:04:54.65    \nframe=  200 fps=0.7 q=30.0 size=     768KiB time=00:00:03.30 bitrate=1906.6kbits/s speed=0.0112x elapsed=0:04:55.17    \nframe=  200 fps=0.7 q=30.0 size=     768KiB time=00:00:03.30 bitrate=1906.6kbits/s speed=0.0112x elapsed=0:04:55.70    \nframe=  201 fps=0.7 q=31.2 size=     768KiB time=00:00:03.31 bitrate=1897.0kbits/s speed=0.0112x elapsed=0:04:56.21    \nframe=  201 fps=0.7 q=31.2 size=     768KiB time=00:00:03.31 bitrate=1897.0kbits/s speed=0.0112x elapsed=0:04:56.74    \nframe=  201 fps=0.7 q=31.2 size=     768KiB time=00:00:03.31 bitrate=1897.0kbits/s speed=0.0112x elapsed=0:04:57.27    \nframe=  202 fps=0.7 q=34.1 size=     768KiB time=00:00:03.33 bitrate=1887.5kbits/s speed=0.0112x elapsed=0:04:57.79    \nframe=  202 fps=0.7 q=34.1 size=     768KiB time=00:00:03.33 bitrate=1887.5kbits/s speed=0.0112x elapsed=0:04:58.32    \nframe=  203 fps=0.7 q=33.5 size=     768KiB time=00:00:03.35 bitrate=1878.2kbits/s speed=0.0112x elapsed=0:04:58.84    \nframe=  203 fps=0.7 q=33.5 size=     768KiB time=00:00:03.35 bitrate=1878.2kbits/s speed=0.0112x elapsed=0:04:59.36    \nframe=  204 fps=0.7 q=33.2 size=     768KiB time=00:00:03.36 bitrate=1868.9kbits/s speed=0.0112x elapsed=0:04:59.91    \nframe=  206 fps=0.7 q=32.5 size=     768KiB time=00:00:03.40 bitrate=1850.5kbits/s speed=0.0113x elapsed=0:05:00.43    \nframe=  206 fps=0.7 q=32.5 size=     768KiB time=00:00:03.40 bitrate=1850.5kbits/s speed=0.0113x elapsed=0:05:00.97    \nframe=  207 fps=0.7 q=34.1 size=     768KiB time=00:00:03.41 bitrate=1841.5kbits/s speed=0.0113x elapsed=0:05:01.51    \nframe=  207 fps=0.7 q=34.1 size=     768KiB time=00:00:03.41 bitrate=1841.5kbits/s speed=0.0113x elapsed=0:05:02.05    \nframe=  208 fps=0.7 q=33.6 size=     768KiB time=00:00:03.43 bitrate=1832.6kbits/s speed=0.0113x elapsed=0:05:02.59    \nframe=  209 fps=0.7 q=29.5 size=     768KiB time=00:00:03.45 bitrate=1823.7kbits/s speed=0.0114x elapsed=0:05:03.12    \nframe=  209 fps=0.7 q=29.5 size=     768KiB time=00:00:03.45 bitrate=1823.7kbits/s speed=0.0114x elapsed=0:05:03.63    \nframe=  210 fps=0.7 q=28.4 size=     768KiB time=00:00:03.46 bitrate=1814.9kbits/s speed=0.0114x elapsed=0:05:04.17    \nframe=  210 fps=0.7 q=28.4 size=     768KiB time=00:00:03.46 bitrate=1814.9kbits/s speed=0.0114x elapsed=0:05:04.70    \nframe=  210 fps=0.7 q=28.4 size=     768KiB time=00:00:03.46 bitrate=1814.9kbits/s speed=0.0114x elapsed=0:05:05.23    \nframe=  211 fps=0.7 q=34.1 size=     768KiB time=00:00:03.48 bitrate=1806.3kbits/s speed=0.0114x elapsed=0:05:05.75    \nframe=  211 fps=0.7 q=34.1 size=     768KiB time=00:00:03.48 bitrate=1806.3kbits/s speed=0.0114x elapsed=0:05:06.26    \nframe=  212 fps=0.7 q=29.2 size=     768KiB time=00:00:03.50 bitrate=1797.7kbits/s speed=0.0114x elapsed=0:05:06.78    \nframe=  213 fps=0.7 q=33.1 size=     768KiB time=00:00:03.51 bitrate=1789.1kbits/s speed=0.0114x elapsed=0:05:07.32    \nframe=  213 fps=0.7 q=33.1 size=     768KiB time=00:00:03.51 bitrate=1789.1kbits/s speed=0.0114x elapsed=0:05:07.84    \nframe=  214 fps=0.7 q=34.0 size=     768KiB time=00:00:03.53 bitrate=1780.7kbits/s speed=0.0115x elapsed=0:05:08.36    \nframe=  215 fps=0.7 q=34.1 size=     768KiB time=00:00:03.53 bitrate=1780.7kbits/s speed=0.0114x elapsed=0:05:08.89    \nframe=  215 fps=0.7 q=34.1 size=     768KiB time=00:00:03.55 bitrate=1772.3kbits/s speed=0.0115x elapsed=0:05:09.44    \nframe=  215 fps=0.7 q=34.1 size=     768KiB time=00:00:03.55 bitrate=1772.3kbits/s speed=0.0115x elapsed=0:05:09.97    \nframe=  215 fps=0.7 q=34.1 size=     768KiB time=00:00:03.55 bitrate=1772.3kbits/s speed=0.0114x elapsed=0:05:10.51    \nframe=  215 fps=0.7 q=34.1 size=     768KiB time=00:00:03.55 bitrate=1772.3kbits/s speed=0.0114x elapsed=0:05:11.06    \nframe=  217 fps=0.7 q=29.4 size=     768KiB time=00:00:03.58 bitrate=1755.9kbits/s speed=0.0115x elapsed=0:05:11.58    \nframe=  218 fps=0.7 q=29.0 size=     768KiB time=00:00:03.60 bitrate=1747.7kbits/s speed=0.0115x elapsed=0:05:12.12    \nframe=  219 fps=0.7 q=34.2 size=     768KiB time=00:00:03.61 bitrate=1739.7kbits/s speed=0.0116x elapsed=0:05:12.64    \nframe=  220 fps=0.7 q=29.5 size=     768KiB time=00:00:03.63 bitrate=1731.7kbits/s speed=0.0116x elapsed=0:05:13.17    \nframe=  221 fps=0.7 q=32.4 size=     768KiB time=00:00:03.65 bitrate=1723.8kbits/s speed=0.0116x elapsed=0:05:13.70    \nframe=  221 fps=0.7 q=32.4 size=     768KiB time=00:00:03.65 bitrate=1723.8kbits/s speed=0.0116x elapsed=0:05:14.23    \nframe=  221 fps=0.7 q=32.4 size=     768KiB time=00:00:03.65 bitrate=1723.8kbits/s speed=0.0116x elapsed=0:05:14.77    \nframe=  221 fps=0.7 q=32.4 size=     768KiB time=00:00:03.65 bitrate=1723.8kbits/s speed=0.0116x elapsed=0:05:15.28    \nframe=  222 fps=0.7 q=34.0 size=     768KiB time=00:00:03.66 bitrate=1715.9kbits/s speed=0.0116x elapsed=0:05:15.81    \nframe=  222 fps=0.7 q=34.0 size=     768KiB time=00:00:03.66 bitrate=1715.9kbits/s speed=0.0116x elapsed=0:05:16.34    \nframe=  223 fps=0.7 q=29.6 size=     768KiB time=00:00:03.68 bitrate=1708.2kbits/s speed=0.0116x elapsed=0:05:16.87    \nframe=  224 fps=0.7 q=28.5 size=     768KiB time=00:00:03.70 bitrate=1700.5kbits/s speed=0.0117x elapsed=0:05:17.41    \nframe=  224 fps=0.7 q=28.5 size=     768KiB time=00:00:03.70 bitrate=1700.5kbits/s speed=0.0116x elapsed=0:05:17.94    \nframe=  225 fps=0.7 q=34.1 size=     768KiB time=00:00:03.71 bitrate=1692.9kbits/s speed=0.0117x elapsed=0:05:18.46    \nframe=  226 fps=0.7 q=29.4 size=     768KiB time=00:00:03.73 bitrate=1685.3kbits/s speed=0.0117x elapsed=0:05:18.96    \nframe=  226 fps=0.7 q=29.4 size=     768KiB time=00:00:03.73 bitrate=1685.3kbits/s speed=0.0117x elapsed=0:05:19.49    \nframe=  227 fps=0.7 q=33.3 size=     768KiB time=00:00:03.75 bitrate=1677.8kbits/s speed=0.0117x elapsed=0:05:20.04    \nframe=  227 fps=0.7 q=33.3 size=     768KiB time=00:00:03.75 bitrate=1677.8kbits/s speed=0.0117x elapsed=0:05:20.60    \nframe=  228 fps=0.7 q=34.1 size=     768KiB time=00:00:03.76 bitrate=1670.4kbits/s speed=0.0117x elapsed=0:05:21.15    \nframe=  229 fps=0.7 q=33.1 size=     768KiB time=00:00:03.78 bitrate=1663.0kbits/s speed=0.0118x elapsed=0:05:21.80    \nframe=  229 fps=0.7 q=33.1 size=     768KiB time=00:00:03.78 bitrate=1663.0kbits/s speed=0.0117x elapsed=0:05:22.42    \nframe=  229 fps=0.7 q=33.1 size=     768KiB time=00:00:03.78 bitrate=1663.0kbits/s speed=0.0117x elapsed=0:05:23.11    \nframe=  229 fps=0.7 q=33.1 size=     768KiB time=00:00:03.78 bitrate=1663.0kbits/s speed=0.0117x elapsed=0:05:23.66    \nframe=  230 fps=0.7 q=33.3 size=     768KiB time=00:00:03.78 bitrate=1663.0kbits/s speed=0.0117x elapsed=0:05:24.18    \nframe=  230 fps=0.7 q=33.3 size=     768KiB time=00:00:03.80 bitrate=1655.7kbits/s speed=0.0117x elapsed=0:05:24.71    \nframe=  230 fps=0.7 q=33.3 size=     768KiB time=00:00:03.80 bitrate=1655.7kbits/s speed=0.0117x elapsed=0:05:25.23    \nframe=  231 fps=0.7 q=42.7 size=     768KiB time=00:00:03.81 bitrate=1648.5kbits/s speed=0.0117x elapsed=0:05:25.77    \nframe=  232 fps=0.7 q=46.0 size=     768KiB time=00:00:03.83 bitrate=1641.3kbits/s speed=0.0117x elapsed=0:05:26.31    \nframe=  233 fps=0.7 q=46.0 size=     768KiB time=00:00:03.85 bitrate=1634.2kbits/s speed=0.0118x elapsed=0:05:26.84    \nframe=  233 fps=0.7 q=46.0 size=     768KiB time=00:00:03.85 bitrate=1634.2kbits/s speed=0.0118x elapsed=0:05:27.38    \nframe=  233 fps=0.7 q=46.0 size=     768KiB time=00:00:03.85 bitrate=1634.2kbits/s speed=0.0117x elapsed=0:05:27.92    \nframe=  233 fps=0.7 q=46.0 size=     768KiB time=00:00:03.85 bitrate=1634.2kbits/s speed=0.0117x elapsed=0:05:28.47    \nframe=  233 fps=0.7 q=46.0 size=     768KiB time=00:00:03.85 bitrate=1634.2kbits/s speed=0.0117x elapsed=0:05:29.09    \nframe=  234 fps=0.7 q=41.4 size=     768KiB time=00:00:03.86 bitrate=1627.2kbits/s speed=0.0117x elapsed=0:05:29.63    \nframe=  235 fps=0.7 q=46.0 size=     768KiB time=00:00:03.88 bitrate=1620.2kbits/s speed=0.0118x elapsed=0:05:30.21    \nframe=  236 fps=0.7 q=46.0 size=     768KiB time=00:00:03.90 bitrate=1613.3kbits/s speed=0.0118x elapsed=0:05:30.79    \nframe=  237 fps=0.7 q=46.0 size=     768KiB time=00:00:03.90 bitrate=1613.3kbits/s speed=0.0118x elapsed=0:05:31.38    \nframe=  237 fps=0.7 q=46.0 size=     768KiB time=00:00:03.91 bitrate=1606.4kbits/s speed=0.0118x elapsed=0:05:31.92    \nframe=  237 fps=0.7 q=46.0 size=     768KiB time=00:00:03.91 bitrate=1606.4kbits/s speed=0.0118x elapsed=0:05:32.47    \nframe=  238 fps=0.7 q=42.7 size=     768KiB time=00:00:03.93 bitrate=1599.6kbits/s speed=0.0118x elapsed=0:05:33.03    \nframe=  238 fps=0.7 q=42.7 size=     768KiB time=00:00:03.93 bitrate=1599.6kbits/s speed=0.0118x elapsed=0:05:33.62    \nframe=  239 fps=0.7 q=45.0 size=     768KiB time=00:00:03.95 bitrate=1592.9kbits/s speed=0.0118x elapsed=0:05:34.14    \nframe=  239 fps=0.7 q=45.0 size=     768KiB time=00:00:03.95 bitrate=1592.9kbits/s speed=0.0118x elapsed=0:05:34.80    \nframe=  239 fps=0.7 q=45.0 size=     768KiB time=00:00:03.95 bitrate=1592.9kbits/s speed=0.0118x elapsed=0:05:35.39    \nframe=  240 fps=0.7 q=45.0 size=     768KiB time=00:00:03.96 bitrate=1586.2kbits/s speed=0.0118x elapsed=0:05:35.93    \nframe=  240 fps=0.7 q=45.0 size=     768KiB time=00:00:03.96 bitrate=1586.2kbits/s speed=0.0118x elapsed=0:05:36.48    \nframe=  240 fps=0.7 q=45.0 size=     768KiB time=00:00:03.96 bitrate=1586.2kbits/s speed=0.0118x elapsed=0:05:37.03    \nframe=  240 fps=0.7 q=45.0 size=     768KiB time=00:00:03.96 bitrate=1586.2kbits/s speed=0.0117x elapsed=0:05:37.62    \nframe=  240 fps=0.7 q=45.0 size=     768KiB time=00:00:03.96 bitrate=1586.2kbits/s speed=0.0117x elapsed=0:05:38.20    \nframe=  240 fps=0.7 q=45.0 size=     768KiB time=00:00:03.96 bitrate=1586.2kbits/s speed=0.0117x elapsed=0:05:38.81    \nframe=  240 fps=0.7 q=45.0 size=     768KiB time=00:00:03.96 bitrate=1586.2kbits/s speed=0.0117x elapsed=0:05:39.42    \nframe=  241 fps=0.7 q=45.0 size=     768KiB time=00:00:03.98 bitrate=1579.5kbits/s speed=0.0117x elapsed=0:05:39.96    \nframe=  241 fps=0.7 q=45.0 size=     768KiB time=00:00:03.98 bitrate=1579.5kbits/s speed=0.0117x elapsed=0:05:40.50    \nframe=  242 fps=0.7 q=45.0 size=     768KiB time=00:00:04.00 bitrate=1573.0kbits/s speed=0.0117x elapsed=0:05:41.05    \nframe=  242 fps=0.7 q=45.0 size=     768KiB time=00:00:04.00 bitrate=1573.0kbits/s speed=0.0117x elapsed=0:05:41.62    \nframe=  242 fps=0.7 q=45.0 size=     768KiB time=00:00:04.00 bitrate=1573.0kbits/s speed=0.0117x elapsed=0:05:42.16    \nframe=  242 fps=0.7 q=45.0 size=     768KiB time=00:00:04.00 bitrate=1573.0kbits/s speed=0.0117x elapsed=0:05:42.69    \nframe=  242 fps=0.7 q=45.0 size=     768KiB time=00:00:04.00 bitrate=1573.0kbits/s speed=0.0117x elapsed=0:05:43.20    \nframe=  242 fps=0.7 q=45.0 size=     768KiB time=00:00:04.00 bitrate=1573.0kbits/s speed=0.0116x elapsed=0:05:43.73    \nframe=  242 fps=0.7 q=45.0 size=     768KiB time=00:00:04.00 bitrate=1573.0kbits/s speed=0.0116x elapsed=0:05:44.28    \nframe=  243 fps=0.7 q=40.5 size=     768KiB time=00:00:04.01 bitrate=1566.4kbits/s speed=0.0116x elapsed=0:05:44.88    \nframe=  243 fps=0.7 q=40.5 size=     768KiB time=00:00:04.01 bitrate=1566.4kbits/s speed=0.0116x elapsed=0:05:45.41    \nframe=  244 fps=0.7 q=44.0 size=     768KiB time=00:00:04.03 bitrate=1560.0kbits/s speed=0.0117x elapsed=0:05:45.98    \nframe=  244 fps=0.7 q=44.0 size=     768KiB time=00:00:04.03 bitrate=1560.0kbits/s speed=0.0116x elapsed=0:05:46.58    \nframe=  244 fps=0.7 q=44.0 size=     768KiB time=00:00:04.03 bitrate=1560.0kbits/s speed=0.0116x elapsed=0:05:47.14    \nframe=  244 fps=0.7 q=44.0 size=     768KiB time=00:00:04.03 bitrate=1560.0kbits/s speed=0.0116x elapsed=0:05:47.71    \nframe=  244 fps=0.7 q=44.0 size=     768KiB time=00:00:04.03 bitrate=1560.0kbits/s speed=0.0116x elapsed=0:05:48.26    \nframe=  246 fps=0.7 q=44.0 size=     768KiB time=00:00:04.05 bitrate=1553.5kbits/s speed=0.0116x elapsed=0:05:48.84    \nframe=  246 fps=0.7 q=44.0 size=     768KiB time=00:00:04.06 bitrate=1547.2kbits/s speed=0.0116x elapsed=0:05:49.40    \nframe=  246 fps=0.7 q=44.0 size=     768KiB time=00:00:04.06 bitrate=1547.2kbits/s speed=0.0116x elapsed=0:05:49.92    \nframe=  246 fps=0.7 q=44.0 size=     768KiB time=00:00:04.06 bitrate=1547.2kbits/s speed=0.0116x elapsed=0:05:50.45    \nframe=  246 fps=0.7 q=44.0 size=     768KiB time=00:00:04.06 bitrate=1547.2kbits/s speed=0.0116x elapsed=0:05:50.98    \nframe=  246 fps=0.7 q=44.0 size=     768KiB time=00:00:04.06 bitrate=1547.2kbits/s speed=0.0116x elapsed=0:05:51.51    \nframe=  246 fps=0.7 q=44.0 size=     768KiB time=00:00:04.06 bitrate=1547.2kbits/s speed=0.0116x elapsed=0:05:52.04    \nframe=  246 fps=0.7 q=44.0 size=     768KiB time=00:00:04.06 bitrate=1547.2kbits/s speed=0.0115x elapsed=0:05:52.65    \nframe=  246 fps=0.7 q=44.0 size=     768KiB time=00:00:04.06 bitrate=1547.2kbits/s speed=0.0115x elapsed=0:05:53.17    \nframe=  246 fps=0.7 q=44.0 size=     768KiB time=00:00:04.06 bitrate=1547.2kbits/s speed=0.0115x elapsed=0:05:53.70    \nframe=  246 fps=0.7 q=44.0 size=     768KiB time=00:00:04.06 bitrate=1547.2kbits/s speed=0.0115x elapsed=0:05:54.27    \nframe=  246 fps=0.7 q=44.0 size=     768KiB time=00:00:04.06 bitrate=1547.2kbits/s speed=0.0115x elapsed=0:05:54.84    \nframe=  246 fps=0.7 q=44.0 size=     768KiB time=00:00:04.06 bitrate=1547.2kbits/s speed=0.0114x elapsed=0:05:55.38    \nframe=  247 fps=0.7 q=44.0 size=     768KiB time=00:00:04.08 bitrate=1540.9kbits/s speed=0.0115x elapsed=0:05:55.90    \nframe=  248 fps=0.7 q=44.0 size=     768KiB time=00:00:04.10 bitrate=1534.6kbits/s speed=0.0115x elapsed=0:05:56.43    \nframe=  248 fps=0.7 q=44.0 size=     768KiB time=00:00:04.10 bitrate=1534.6kbits/s speed=0.0115x elapsed=0:05:56.96    \nframe=  248 fps=0.7 q=44.0 size=     768KiB time=00:00:04.10 bitrate=1534.6kbits/s speed=0.0115x elapsed=0:05:57.49    \nframe=  248 fps=0.7 q=44.0 size=     768KiB time=00:00:04.10 bitrate=1534.6kbits/s speed=0.0115x elapsed=0:05:58.06    \nframe=  249 fps=0.7 q=39.8 size=     768KiB time=00:00:04.11 bitrate=1528.4kbits/s speed=0.0115x elapsed=0:05:58.59    \nframe=  249 fps=0.7 q=39.8 size=     768KiB time=00:00:04.11 bitrate=1528.4kbits/s speed=0.0115x elapsed=0:05:59.11    \nframe=  251 fps=0.7 q=44.0 size=    1024KiB time=00:00:04.15 bitrate=2021.4kbits/s speed=0.0115x elapsed=0:05:59.67    \nframe=  251 fps=0.7 q=44.0 size=    1024KiB time=00:00:04.15 bitrate=2021.4kbits/s speed=0.0115x elapsed=0:06:00.23    \nframe=  251 fps=0.7 q=44.0 size=    1024KiB time=00:00:04.15 bitrate=2021.4kbits/s speed=0.0115x elapsed=0:06:00.79    \nframe=  251 fps=0.7 q=44.0 size=    1024KiB time=00:00:04.15 bitrate=2021.4kbits/s speed=0.0115x elapsed=0:06:01.37    \nframe=  251 fps=0.7 q=44.0 size=    1024KiB time=00:00:04.15 bitrate=2021.4kbits/s speed=0.0115x elapsed=0:06:01.98    \nframe=  251 fps=0.7 q=44.0 size=    1024KiB time=00:00:04.15 bitrate=2021.4kbits/s speed=0.0114x elapsed=0:06:02.58    \nframe=  252 fps=0.7 q=36.7 size=    1024KiB time=00:00:04.16 bitrate=2013.4kbits/s speed=0.0115x elapsed=0:06:03.15    \nframe=  252 fps=0.7 q=36.7 size=    1024KiB time=00:00:04.16 bitrate=2013.4kbits/s speed=0.0115x elapsed=0:06:03.70    \nframe=  252 fps=0.7 q=36.7 size=    1024KiB time=00:00:04.16 bitrate=2013.4kbits/s speed=0.0114x elapsed=0:06:04.24    \nframe=  252 fps=0.7 q=36.7 size=    1024KiB time=00:00:04.16 bitrate=2013.4kbits/s speed=0.0114x elapsed=0:06:04.78    \nframe=  252 fps=0.7 q=36.7 size=    1024KiB time=00:00:04.16 bitrate=2013.4kbits/s speed=0.0114x elapsed=0:06:05.37    \nframe=  253 fps=0.7 q=37.4 size=    1024KiB time=00:00:04.18 bitrate=2005.3kbits/s speed=0.0114x elapsed=0:06:05.89    \nframe=  255 fps=0.7 q=42.0 size=    1024KiB time=00:00:04.20 bitrate=1997.4kbits/s speed=0.0115x elapsed=0:06:06.40    \nframe=  255 fps=0.7 q=42.0 size=    1024KiB time=00:00:04.21 bitrate=1989.5kbits/s speed=0.0115x elapsed=0:06:06.92    \nframe=  257 fps=0.7 q=45.0 size=    1024KiB time=00:00:04.25 bitrate=1973.9kbits/s speed=0.0116x elapsed=0:06:07.44    \nframe=  257 fps=0.7 q=45.0 size=    1024KiB time=00:00:04.25 bitrate=1973.9kbits/s speed=0.0115x elapsed=0:06:07.97    \nframe=  257 fps=0.7 q=45.0 size=    1024KiB time=00:00:04.25 bitrate=1973.9kbits/s speed=0.0115x elapsed=0:06:08.50    \nframe=  258 fps=0.7 q=45.0 size=    1024KiB time=00:00:04.26 bitrate=1966.2kbits/s speed=0.0116x elapsed=0:06:09.03    \nframe=  259 fps=0.7 q=46.0 size=    1024KiB time=00:00:04.28 bitrate=1958.5kbits/s speed=0.0116x elapsed=0:06:09.56    \nframe=  260 fps=0.7 q=33.9 size=    1024KiB time=00:00:04.30 bitrate=1950.9kbits/s speed=0.0116x elapsed=0:06:10.08    \nframe=  261 fps=0.7 q=42.0 size=    1024KiB time=00:00:04.31 bitrate=1943.4kbits/s speed=0.0116x elapsed=0:06:10.62    \nframe=  261 fps=0.7 q=42.0 size=    1024KiB time=00:00:04.31 bitrate=1943.4kbits/s speed=0.0116x elapsed=0:06:11.16    \nframe=  262 fps=0.7 q=43.0 size=    1024KiB time=00:00:04.33 bitrate=1935.9kbits/s speed=0.0117x elapsed=0:06:11.71    \nframe=  263 fps=0.7 q=43.0 size=    1024KiB time=00:00:04.35 bitrate=1928.5kbits/s speed=0.0117x elapsed=0:06:12.25    \nframe=  264 fps=0.7 q=42.0 size=    1024KiB time=00:00:04.36 bitrate=1921.1kbits/s speed=0.0117x elapsed=0:06:12.77    \nframe=  264 fps=0.7 q=42.0 size=    1024KiB time=00:00:04.36 bitrate=1921.1kbits/s speed=0.0117x elapsed=0:06:13.30    \nframe=  264 fps=0.7 q=42.0 size=    1024KiB time=00:00:04.36 bitrate=1921.1kbits/s speed=0.0117x elapsed=0:06:13.85    \nframe=  265 fps=0.7 q=33.6 size=    1024KiB time=00:00:04.38 bitrate=1913.8kbits/s speed=0.0117x elapsed=0:06:14.35    \nframe=  266 fps=0.7 q=41.0 size=    1024KiB time=00:00:04.40 bitrate=1906.6kbits/s speed=0.0117x elapsed=0:06:14.89    \nframe=  267 fps=0.7 q=42.0 size=    1024KiB time=00:00:04.41 bitrate=1899.4kbits/s speed=0.0118x elapsed=0:06:15.43    \nframe=  267 fps=0.7 q=42.0 size=    1024KiB time=00:00:04.41 bitrate=1899.4kbits/s speed=0.0117x elapsed=0:06:15.93    \nframe=  267 fps=0.7 q=42.0 size=    1024KiB time=00:00:04.41 bitrate=1899.4kbits/s speed=0.0117x elapsed=0:06:16.47    \nframe=  267 fps=0.7 q=42.0 size=    1024KiB time=00:00:04.41 bitrate=1899.4kbits/s speed=0.0117x elapsed=0:06:17.04    \nframe=  268 fps=0.7 q=32.4 size=    1024KiB time=00:00:04.43 bitrate=1892.2kbits/s speed=0.0117x elapsed=0:06:17.58    \nframe=  270 fps=0.7 q=41.0 size=    1024KiB time=00:00:04.46 bitrate=1878.1kbits/s speed=0.0118x elapsed=0:06:18.11    \nframe=  271 fps=0.7 q=32.5 size=    1024KiB time=00:00:04.48 bitrate=1871.1kbits/s speed=0.0118x elapsed=0:06:18.65    \nframe=  271 fps=0.7 q=32.5 size=    1024KiB time=00:00:04.48 bitrate=1871.1kbits/s speed=0.0118x elapsed=0:06:19.19    \nframe=  272 fps=0.7 q=39.0 size=    1024KiB time=00:00:04.50 bitrate=1864.2kbits/s speed=0.0119x elapsed=0:06:19.70    \nframe=  272 fps=0.7 q=39.0 size=    1024KiB time=00:00:04.50 bitrate=1864.2kbits/s speed=0.0118x elapsed=0:06:20.23    \nframe=  273 fps=0.7 q=40.0 size=    1024KiB time=00:00:04.51 bitrate=1857.3kbits/s speed=0.0119x elapsed=0:06:20.75    \nframe=  273 fps=0.7 q=40.0 size=    1024KiB time=00:00:04.51 bitrate=1857.3kbits/s speed=0.0118x elapsed=0:06:21.26    \nframe=  273 fps=0.7 q=40.0 size=    1024KiB time=00:00:04.51 bitrate=1857.3kbits/s speed=0.0118x elapsed=0:06:21.79    \nframe=  273 fps=0.7 q=40.0 size=    1024KiB time=00:00:04.51 bitrate=1857.3kbits/s speed=0.0118x elapsed=0:06:22.34    \nframe=  274 fps=0.7 q=32.5 size=    1024KiB time=00:00:04.53 bitrate=1850.5kbits/s speed=0.0118x elapsed=0:06:22.88    \nframe=  274 fps=0.7 q=32.5 size=    1024KiB time=00:00:04.53 bitrate=1850.5kbits/s speed=0.0118x elapsed=0:06:23.41    \nframe=  274 fps=0.7 q=32.5 size=    1024KiB time=00:00:04.53 bitrate=1850.5kbits/s speed=0.0118x elapsed=0:06:23.92    \nframe=  274 fps=0.7 q=32.5 size=    1024KiB time=00:00:04.53 bitrate=1850.5kbits/s speed=0.0118x elapsed=0:06:24.46    \nframe=  275 fps=0.7 q=39.0 size=    1024KiB time=00:00:04.55 bitrate=1843.7kbits/s speed=0.0118x elapsed=0:06:24.99    \nframe=  277 fps=0.7 q=33.0 size=    1024KiB time=00:00:04.58 bitrate=1830.3kbits/s speed=0.0119x elapsed=0:06:25.52    \nframe=  278 fps=0.7 q=38.9 size=    1024KiB time=00:00:04.60 bitrate=1823.7kbits/s speed=0.0119x elapsed=0:06:26.07    \nframe=  279 fps=0.7 q=40.0 size=    1024KiB time=00:00:04.61 bitrate=1817.1kbits/s speed=0.0119x elapsed=0:06:26.61    \nframe=  279 fps=0.7 q=40.0 size=    1024KiB time=00:00:04.61 bitrate=1817.1kbits/s speed=0.0119x elapsed=0:06:27.13    \nframe=  279 fps=0.7 q=40.0 size=    1024KiB time=00:00:04.61 bitrate=1817.1kbits/s speed=0.0119x elapsed=0:06:27.68    \nframe=  280 fps=0.7 q=32.6 size=    1024KiB time=00:00:04.63 bitrate=1810.6kbits/s speed=0.0119x elapsed=0:06:28.21    \nframe=  280 fps=0.7 q=32.6 size=    1024KiB time=00:00:04.63 bitrate=1810.6kbits/s speed=0.0119x elapsed=0:06:28.74    \nframe=  282 fps=0.7 q=40.0 size=    1024KiB time=00:00:04.66 bitrate=1797.6kbits/s speed=0.012x elapsed=0:06:29.27    \nframe=  283 fps=0.7 q=39.0 size=    1024KiB time=00:00:04.68 bitrate=1791.2kbits/s speed=0.012x elapsed=0:06:29.80    \nframe=  283 fps=0.7 q=39.0 size=    1024KiB time=00:00:04.68 bitrate=1791.2kbits/s speed=0.012x elapsed=0:06:30.35    \nframe=  284 fps=0.7 q=39.0 size=    1024KiB time=00:00:04.70 bitrate=1784.9kbits/s speed=0.012x elapsed=0:06:30.88    \nframe=  284 fps=0.7 q=39.0 size=    1024KiB time=00:00:04.70 bitrate=1784.9kbits/s speed=0.012x elapsed=0:06:31.40    \nframe=  286 fps=0.7 q=35.2 size=    1024KiB time=00:00:04.73 bitrate=1772.3kbits/s speed=0.0121x elapsed=0:06:31.92    \nframe=  287 fps=0.7 q=39.0 size=    1024KiB time=00:00:04.75 bitrate=1766.1kbits/s speed=0.0121x elapsed=0:06:32.46    \nframe=  288 fps=0.7 q=38.0 size=    1024KiB time=00:00:04.76 bitrate=1759.9kbits/s speed=0.0121x elapsed=0:06:32.97    \nframe=  289 fps=0.7 q=37.1 size=    1024KiB time=00:00:04.78 bitrate=1753.8kbits/s speed=0.0122x elapsed=0:06:33.52    \nframe=  289 fps=0.7 q=37.1 size=    1024KiB time=00:00:04.78 bitrate=1753.8kbits/s speed=0.0121x elapsed=0:06:34.06    \nframe=  290 fps=0.7 q=33.0 size=    1024KiB time=00:00:04.80 bitrate=1747.7kbits/s speed=0.0122x elapsed=0:06:34.61    \nframe=  290 fps=0.7 q=33.0 size=    1024KiB time=00:00:04.80 bitrate=1747.7kbits/s speed=0.0121x elapsed=0:06:35.17    \nframe=  290 fps=0.7 q=33.0 size=    1024KiB time=00:00:04.80 bitrate=1747.7kbits/s speed=0.0121x elapsed=0:06:35.80    \nframe=  290 fps=0.7 q=33.0 size=    1024KiB time=00:00:04.80 bitrate=1747.7kbits/s speed=0.0121x elapsed=0:06:36.45    \nframe=  290 fps=0.7 q=33.0 size=    1024KiB time=00:00:04.80 bitrate=1747.7kbits/s speed=0.0121x elapsed=0:06:37.11    \nframe=  290 fps=0.7 q=33.0 size=    1024KiB time=00:00:04.80 bitrate=1747.7kbits/s speed=0.0121x elapsed=0:06:37.76    \nframe=  290 fps=0.7 q=33.0 size=    1024KiB time=00:00:04.80 bitrate=1747.7kbits/s speed=0.0121x elapsed=0:06:38.29    \nframe=  291 fps=0.7 q=34.3 size=    1280KiB time=00:00:04.81 bitrate=2177.0kbits/s speed=0.0121x elapsed=0:06:38.81    \nframe=  291 fps=0.7 q=34.3 size=    1280KiB time=00:00:04.81 bitrate=2177.0kbits/s speed=0.0121x elapsed=0:06:39.34    \nframe=  292 fps=0.7 q=37.0 size=    1280KiB time=00:00:04.83 bitrate=2169.5kbits/s speed=0.0121x elapsed=0:06:39.87    \nframe=  292 fps=0.7 q=37.0 size=    1280KiB time=00:00:04.83 bitrate=2169.5kbits/s speed=0.0121x elapsed=0:06:40.40    \nframe=  293 fps=0.7 q=35.2 size=    1280KiB time=00:00:04.85 bitrate=2162.1kbits/s speed=0.0121x elapsed=0:06:40.95    \nframe=  293 fps=0.7 q=35.2 size=    1280KiB time=00:00:04.85 bitrate=2162.1kbits/s speed=0.0121x elapsed=0:06:41.51    \nframe=  293 fps=0.7 q=35.2 size=    1280KiB time=00:00:04.85 bitrate=2162.1kbits/s speed=0.0121x elapsed=0:06:42.07    \nframe=  293 fps=0.7 q=35.2 size=    1280KiB time=00:00:04.85 bitrate=2162.1kbits/s speed=0.012x elapsed=0:06:42.65    \nframe=  293 fps=0.7 q=35.2 size=    1280KiB time=00:00:04.85 bitrate=2162.1kbits/s speed=0.012x elapsed=0:06:43.27    \nframe=  293 fps=0.7 q=35.2 size=    1280KiB time=00:00:04.85 bitrate=2162.1kbits/s speed=0.012x elapsed=0:06:43.86    \nframe=  293 fps=0.7 q=35.2 size=    1280KiB time=00:00:04.85 bitrate=2162.1kbits/s speed=0.012x elapsed=0:06:44.51    \nframe=  293 fps=0.7 q=35.2 size=    1280KiB time=00:00:04.85 bitrate=2162.1kbits/s speed=0.012x elapsed=0:06:45.13    \nframe=  293 fps=0.7 q=35.2 size=    1280KiB time=00:00:04.85 bitrate=2162.1kbits/s speed=0.012x elapsed=0:06:45.78    \nframe=  293 fps=0.7 q=35.2 size=    1280KiB time=00:00:04.85 bitrate=2162.1kbits/s speed=0.0119x elapsed=0:06:46.33    \nframe=  294 fps=0.7 q=34.3 size=    1280KiB time=00:00:04.86 bitrate=2154.7kbits/s speed=0.012x elapsed=0:06:46.88    \nframe=  294 fps=0.7 q=34.3 size=    1280KiB time=00:00:04.86 bitrate=2154.7kbits/s speed=0.0119x elapsed=0:06:47.43    \nframe=  294 fps=0.7 q=34.3 size=    1280KiB time=00:00:04.86 bitrate=2154.7kbits/s speed=0.0119x elapsed=0:06:48.00    \nframe=  295 fps=0.7 q=32.9 size=    1280KiB time=00:00:04.88 bitrate=2147.3kbits/s speed=0.012x elapsed=0:06:48.55    \nframe=  295 fps=0.7 q=32.9 size=    1280KiB time=00:00:04.88 bitrate=2147.3kbits/s speed=0.0119x elapsed=0:06:49.12    \nframe=  296 fps=0.7 q=32.6 size=    1280KiB time=00:00:04.90 bitrate=2140.0kbits/s speed=0.012x elapsed=0:06:49.67    \nframe=  296 fps=0.7 q=32.6 size=    1280KiB time=00:00:04.90 bitrate=2140.0kbits/s speed=0.0119x elapsed=0:06:50.21    \nframe=  296 fps=0.7 q=32.6 size=    1280KiB time=00:00:04.90 bitrate=2140.0kbits/s speed=0.0119x elapsed=0:06:50.73    \nframe=  296 fps=0.7 q=32.6 size=    1280KiB time=00:00:04.90 bitrate=2140.0kbits/s speed=0.0119x elapsed=0:06:51.31    \nframe=  297 fps=0.7 q=32.5 size=    1280KiB time=00:00:04.91 bitrate=2132.8kbits/s speed=0.0119x elapsed=0:06:51.85    \nframe=  299 fps=0.7 q=31.9 size=    1280KiB time=00:00:04.95 bitrate=2118.4kbits/s speed=0.012x elapsed=0:06:52.38    \n[mp4 @ 000002a4cb15cfc0] Starting second pass: moving the moov atom to the beginning of the file\n[out#0/mp4 @ 000002a4cb14ac00] video:1307KiB audio:0KiB subtitle:0KiB other streams:0KiB global headers:2KiB muxing overhead: 0.524520%\nframe=  300 fps=0.7 q=34.2 Lsize=    1313KiB time=00:00:04.96 bitrate=2166.4kbits/s speed=0.012x elapsed=0:06:52.43    \nx265 [info]: frame I:      2, Avg QP:43.54  kb/s: 36980.40\nx265 [info]: frame P:     71, Avg QP:33.58  kb/s: 6227.47 \nx265 [info]: frame B:    227, Avg QP:37.63  kb/s: 553.06  \nx265 [info]: Weighted P-Frames: Y:5.6% UV:2.8%\n\nencoded 300 frames in 411.71s (0.73 fps), 2138.85 kb/s, Avg QP:36.71\n",
  "seconds": 413.2110843658447,
  "probe_out": {}
}